<?xml version="1.0" encoding="utf-8"?>
<!-- Generator: Adobe Illustrator 15.0.0, SVG Export Plug-In . SVG Version: 6.00 Build 0)  -->
<!DOCTYPE svg PUBLIC "-//W3C//DTD SVG 1.1//EN" "http://www.w3.org/Graphics/SVG/1.1/DTD/svg11.dtd">
<svg version="1.1" id="Layer_1" xmlns="http://www.w3.org/2000/svg" xmlns:xlink="http://www.w3.org/1999/xlink" x="0px" y="0px"
	 width="250px" height="250px" viewBox="0 0 250 250" enable-background="new 0 0 250 250" xml:space="preserve">
<g>
	<g>
		<path fill="#445462" d="M232.605,188.936c-3.516,0-6.377-2.86-6.377-6.377c0-3.515,2.861-6.375,6.377-6.375
			s6.375,2.86,6.375,6.375C238.98,186.074,236.121,188.936,232.605,188.936z M232.605,179.384c-1.752,0-3.176,1.425-3.176,3.175
			c0,1.752,1.424,3.176,3.176,3.176c1.75,0,3.174-1.424,3.174-3.176C235.779,180.809,234.355,179.384,232.605,179.384z"/>
	</g>
	<g>
		<path fill="#445462" d="M92.281,20.692c-3.515,0-6.375-2.86-6.375-6.375c0-3.516,2.86-6.376,6.375-6.376
			c3.516,0,6.376,2.86,6.376,6.376S95.797,20.692,92.281,20.692z M92.281,11.142c-1.751,0-3.175,1.424-3.175,3.176
			c0,1.75,1.424,3.175,3.175,3.175c1.751,0,3.176-1.425,3.176-3.175C95.457,12.566,94.033,11.142,92.281,11.142z"/>
	</g>
	<g>
		<path fill="#445462" d="M51.551,182.771l-5.99-13.33l0.517-0.698l15.843,1.997l0.313,0.82l-9.853,11.334L51.551,182.771z
			 M52.737,177.607l3.76-4.326l-6.045-0.762L52.737,177.607z"/>
	</g>
	<g>
		<polygon fill="#445462" points="183.406,99.795 183.361,99.092 184.816,97.438 185.52,97.393 195.387,106.079 195.037,91.814 
			195.686,91.328 204.277,94.055 206.561,87.995 207.201,87.705 209.266,88.482 209.557,89.124 206.369,97.582 205.752,97.88 
			198.329,95.524 198.738,112.178 197.911,112.564 		"/>
	</g>
	<g>
		<g>
			<g>
				<path fill="#445462" d="M228.154,145.669l-0.456-0.534c0.075-0.961,0.14-1.924,0.19-2.891l0.521-0.471l2.201,0.115l0.471,0.522
					c-0.051,0.996-0.116,1.987-0.195,2.978l-0.537,0.455L228.154,145.669z M228.484,139.864l-0.486-0.511
					c0.02-0.84,0.029-1.681,0.029-2.523v-0.373l0.496-0.499l2.205-0.006l0.498,0.497l0.002,0.38c0,0.87-0.012,1.737-0.033,2.603
					l-0.51,0.484L228.484,139.864z M227.977,133.564c-0.031-0.965-0.072-1.93-0.129-2.891l0.467-0.525l2.201-0.131l0.525,0.469
					c0.059,0.988,0.104,1.982,0.135,2.979l-0.482,0.515l-2.203,0.067L227.977,133.564z M227.637,127.79
					c-0.085-0.964-0.182-1.924-0.291-2.878l0.438-0.552l2.189-0.253l0.553,0.438c0.111,0.986,0.213,1.975,0.3,2.969l-0.454,0.538
					l-2.195,0.189L227.637,127.79z M226.973,122.042c-0.137-0.956-0.287-1.909-0.453-2.856l0.407-0.576l2.173-0.375l0.574,0.406
					c0.169,0.978,0.324,1.959,0.467,2.945l-0.422,0.564l-2.183,0.314L226.973,122.042z M225.986,116.342
					c-0.19-0.947-0.396-1.89-0.612-2.826l0.373-0.598l2.147-0.497l0.598,0.374c0.223,0.966,0.434,1.938,0.632,2.914l-0.39,0.587
					l-2.16,0.438L225.986,116.342z M224.682,110.708c-0.244-0.934-0.504-1.864-0.772-2.789l0.338-0.617l2.116-0.618l0.617,0.338
					c0.278,0.953,0.545,1.911,0.797,2.875l-0.355,0.608l-2.132,0.559L224.682,110.708z M223.057,105.155
					c-0.297-0.919-0.605-1.832-0.929-2.738l0.304-0.636l2.075-0.738l0.636,0.303c0.332,0.936,0.653,1.877,0.959,2.826l-0.32,0.626
					l-2.096,0.678L223.057,105.155z M221.119,99.704c-0.35-0.899-0.71-1.793-1.083-2.682l0.267-0.652l2.03-0.855l0.653,0.266
					c0.384,0.916,0.759,1.838,1.117,2.767l-0.285,0.644l-2.055,0.796L221.119,99.704z M218.88,94.381
					c-0.397-0.876-0.808-1.745-1.229-2.608l0.229-0.666l1.979-0.969l0.666,0.229c0.437,0.89,0.858,1.787,1.271,2.69l-0.247,0.659
					l-2.007,0.912L218.88,94.381z M33.95,91.547l-0.232-0.665c0.433-0.897,0.878-1.789,1.336-2.672l0.671-0.213l1.957,1.014
					l0.213,0.671c-0.443,0.856-0.875,1.72-1.295,2.591l-0.665,0.232L33.95,91.547z M216.348,89.2
					c-0.447-0.853-0.908-1.698-1.379-2.535l0.19-0.678l1.922-1.08l0.678,0.19c0.486,0.864,0.959,1.736,1.421,2.615l-0.209,0.673
					l-1.951,1.024L216.348,89.2z M36.66,86.254l-0.194-0.677c0.483-0.872,0.979-1.736,1.486-2.591l0.683-0.174l1.896,1.123
					l0.175,0.683c-0.491,0.829-0.971,1.667-1.441,2.513l-0.677,0.194L36.66,86.254z M213.521,84.167
					c-0.496-0.825-1.002-1.643-1.52-2.454l0.152-0.688l1.856-1.186l0.688,0.152c0.531,0.835,1.055,1.68,1.564,2.531l-0.172,0.683
					l-1.89,1.133L213.521,84.167z M39.666,81.124l-0.155-0.687c0.532-0.842,1.076-1.676,1.63-2.501l0.691-0.136l1.83,1.228
					l0.136,0.691c-0.537,0.801-1.064,1.609-1.58,2.427l-0.687,0.156L39.666,81.124z M210.413,79.302
					c-0.541-0.797-1.093-1.586-1.655-2.366l0.112-0.696l1.788-1.289l0.693,0.113c0.582,0.805,1.15,1.619,1.709,2.44l-0.133,0.691
					l-1.822,1.239L210.413,79.302z M42.957,76.173l-0.116-0.694c0.578-0.81,1.167-1.611,1.768-2.405l0.698-0.096l1.757,1.33
					l0.097,0.698c-0.583,0.769-1.155,1.546-1.715,2.333l-0.695,0.116L42.957,76.173z M207.035,74.617
					c-0.587-0.765-1.182-1.522-1.788-2.27l0.073-0.7l1.713-1.388l0.699,0.073c0.627,0.771,1.24,1.552,1.845,2.342l-0.095,0.698
					l-1.75,1.338L207.035,74.617z M46.522,71.42l-0.076-0.7c0.623-0.776,1.257-1.543,1.901-2.301l0.702-0.057l1.679,1.428
					l0.057,0.702c-0.625,0.735-1.24,1.479-1.845,2.231l-0.7,0.077L46.522,71.42z M203.396,70.128
					c-0.629-0.73-1.267-1.453-1.914-2.166l0.033-0.704l1.629-1.482l0.705,0.033c0.668,0.735,1.326,1.48,1.974,2.233l-0.054,0.702
					l-1.672,1.436L203.396,70.128z M50.351,66.877l-0.037-0.703c0.666-0.74,1.343-1.469,2.029-2.189l0.704-0.017l1.595,1.521
					l0.017,0.704c-0.665,0.698-1.321,1.405-1.966,2.122l-0.703,0.037L50.351,66.877z M199.507,65.852
					c-0.669-0.695-1.347-1.38-2.034-2.055l-0.007-0.705l1.546-1.573l0.703-0.006c0.709,0.696,1.408,1.403,2.098,2.12l-0.015,0.704
					l-1.587,1.528L199.507,65.852z M55.98,64.125l-1.551-1.565l0.003-0.705c0.706-0.7,1.423-1.39,2.148-2.07l0.704,0.023
					l1.506,1.609l-0.022,0.704c-0.704,0.66-1.399,1.328-2.084,2.007L55.98,64.125z M195.381,61.8
					c-0.707-0.655-1.424-1.301-2.148-1.937l-0.047-0.703l1.453-1.658l0.701-0.047c0.749,0.656,1.488,1.322,2.217,1.997l0.026,0.704
					l-1.498,1.617L195.381,61.8z M60.205,60.13l-1.46-1.651l0.043-0.703c0.745-0.659,1.5-1.307,2.263-1.943l0.701,0.063l1.413,1.692
					l-0.063,0.701c-0.74,0.618-1.472,1.247-2.194,1.884L60.205,60.13z M191.029,57.989c-0.743-0.614-1.493-1.218-2.256-1.812
					l-0.088-0.699l1.356-1.738l0.699-0.087c0.784,0.612,1.561,1.235,2.325,1.869l0.066,0.701l-1.402,1.699L191.029,57.989z
					 M64.648,56.385l-1.363-1.732l0.083-0.699c0.781-0.615,1.571-1.219,2.369-1.811l0.697,0.103l1.313,1.771l-0.103,0.696
					c-0.774,0.574-1.54,1.159-2.296,1.756L64.648,56.385z M186.467,54.431c-0.777-0.571-1.562-1.132-2.355-1.681l-0.127-0.692
					l1.254-1.813l0.691-0.126c0.819,0.566,1.631,1.145,2.432,1.733l0.107,0.697l-1.306,1.776L186.467,54.431z M69.297,52.898
					l-1.261-1.807l0.123-0.693c0.814-0.569,1.637-1.126,2.468-1.673l0.69,0.143l1.209,1.842l-0.143,0.689
					c-0.805,0.53-1.604,1.071-2.394,1.623L69.297,52.898z M181.707,51.138c-0.811-0.526-1.627-1.041-2.45-1.543l-0.166-0.685
					l1.147-1.881l0.686-0.166c0.85,0.519,1.692,1.049,2.526,1.592l0.146,0.688l-1.199,1.848L181.707,51.138z M74.137,49.686
					L72.98,47.81l0.163-0.685c0.845-0.522,1.699-1.032,2.56-1.529l0.68,0.183l1.102,1.909l-0.182,0.681
					c-0.833,0.481-1.661,0.975-2.48,1.48L74.137,49.686z M176.764,48.123c-0.839-0.478-1.684-0.945-2.537-1.4l-0.205-0.673
					l1.039-1.944l0.674-0.206c0.879,0.47,1.75,0.951,2.615,1.444l0.188,0.679l-1.094,1.914L176.764,48.123z M79.151,46.757
					l-1.047-1.94l0.202-0.675c0.874-0.471,1.754-0.93,2.642-1.377l0.668,0.221l0.991,1.968l-0.221,0.668
					c-0.861,0.434-1.715,0.879-2.562,1.335L79.151,46.757z M171.652,45.396c-0.864-0.429-1.735-0.846-2.612-1.251l-0.244-0.66
					l0.922-2.002l0.661-0.244c0.905,0.418,1.807,0.848,2.697,1.292l0.225,0.667l-0.98,1.974L171.652,45.396z M84.324,44.124
					l-0.934-1.997l0.24-0.663c0.9-0.42,1.805-0.828,2.718-1.222l0.654,0.259l0.875,2.023l-0.26,0.655
					c-0.885,0.382-1.762,0.777-2.633,1.185L84.324,44.124z M166.391,42.971c-0.89-0.378-1.783-0.744-2.685-1.098l-0.281-0.646
					l0.804-2.052l0.646-0.282c0.93,0.364,1.854,0.742,2.77,1.133l0.263,0.653l-0.863,2.027L166.391,42.971z M89.638,41.793
					l-0.817-2.048l0.278-0.646c0.922-0.367,1.849-0.721,2.783-1.062l0.639,0.297l0.756,2.07l-0.297,0.639
					c-0.905,0.331-1.804,0.673-2.696,1.029L89.638,41.793z M160.992,40.854c-0.908-0.326-1.823-0.64-2.744-0.94l-0.318-0.628
					l0.684-2.095l0.63-0.318c0.948,0.31,1.894,0.633,2.831,0.97l0.301,0.637l-0.745,2.075L160.992,40.854z M95.075,39.776
					l-0.695-2.091l0.315-0.63c0.94-0.312,1.887-0.612,2.838-0.898l0.621,0.333l0.634,2.111l-0.334,0.621
					c-0.921,0.277-1.838,0.567-2.75,0.87L95.075,39.776z M155.477,39.054c-0.922-0.271-1.852-0.53-2.785-0.775l-0.354-0.608
					l0.562-2.132l0.607-0.354c0.965,0.253,1.924,0.521,2.874,0.8l0.338,0.618l-0.62,2.115L155.477,39.054z M100.618,38.08
					l-0.572-2.129l0.352-0.61c0.956-0.256,1.917-0.5,2.883-0.731l0.6,0.369l0.511,2.144l-0.369,0.6
					c-0.936,0.223-1.868,0.46-2.794,0.709L100.618,38.08z M149.885,37.584c-0.937-0.217-1.878-0.421-2.824-0.612l-0.391-0.586
					l0.436-2.161l0.586-0.39c0.979,0.196,1.951,0.407,2.916,0.631l0.375,0.598l-0.498,2.147L149.885,37.584z M106.256,36.706
					l-0.448-2.158l0.387-0.589c0.971-0.202,1.948-0.39,2.929-0.564l0.577,0.403l0.386,2.17l-0.404,0.578
					c-0.951,0.168-1.896,0.351-2.839,0.546L106.256,36.706z M144.217,36.442c-0.947-0.161-1.9-0.31-2.855-0.446l-0.424-0.562
					l0.309-2.182l0.562-0.424c0.988,0.14,1.969,0.293,2.947,0.46l0.407,0.575l-0.371,2.172L144.217,36.442z M111.974,35.663
					l-0.323-2.18l0.42-0.566c0.982-0.145,1.969-0.276,2.959-0.393l0.553,0.436l0.259,2.189l-0.436,0.553
					c-0.959,0.113-1.915,0.24-2.866,0.38L111.974,35.663z M138.492,35.632c-0.955-0.107-1.914-0.201-2.879-0.281l-0.455-0.537
					l0.183-2.197l0.536-0.455c0.995,0.082,1.984,0.179,2.971,0.289l0.439,0.551l-0.245,2.19L138.492,35.632z M117.742,34.952
					l-0.195-2.196l0.452-0.541c0.987-0.088,1.979-0.163,2.976-0.221l0.527,0.467l0.132,2.2l-0.467,0.527
					c-0.965,0.058-1.926,0.13-2.883,0.215L117.742,34.952z M132.729,35.154c-0.959-0.052-1.922-0.091-2.89-0.115l-0.485-0.511
					l0.058-2.203l0.511-0.485c0.997,0.026,1.991,0.065,2.98,0.118l0.47,0.524l-0.118,2.202L132.729,35.154z M123.542,34.574
					l-0.069-2.203l0.482-0.513c0.991-0.031,1.986-0.049,2.982-0.052l0.5,0.497l0.006,2.204l-0.496,0.5
					c-0.967,0.003-1.931,0.02-2.892,0.05L123.542,34.574z"/>
			</g>
			<g>
				<path fill="#445462" d="M50.958,208.193c-0.672-0.73-1.335-1.475-1.986-2.228l0.05-0.702l1.667-1.441l0.702,0.051
					c0.632,0.729,1.273,1.447,1.925,2.158l-0.031,0.703l-1.624,1.49L50.958,208.193z M47.05,203.686
					c-0.629-0.77-1.248-1.547-1.856-2.334l0.09-0.699l1.745-1.346l0.699,0.088c0.589,0.765,1.189,1.521,1.799,2.267l-0.07,0.7
					l-1.707,1.395L47.05,203.686z M43.404,198.963c-0.584-0.804-1.158-1.615-1.72-2.438l0.129-0.69l1.818-1.246l0.692,0.129
					c0.545,0.796,1.102,1.584,1.668,2.363l-0.11,0.694l-1.782,1.298L43.404,198.963z M40.033,194.042
					c-0.538-0.835-1.064-1.679-1.579-2.528l0.168-0.686l1.885-1.141l0.684,0.168c0.499,0.826,1.01,1.645,1.532,2.453l-0.149,0.688
					l-1.854,1.195L40.033,194.042z M36.945,188.939c-0.49-0.864-0.968-1.736-1.434-2.615l0.207-0.674l1.948-1.031l0.673,0.206
					c0.451,0.853,0.915,1.698,1.39,2.534l-0.188,0.68l-1.917,1.087L36.945,188.939z M34.153,183.669
					c-0.44-0.89-0.868-1.789-1.283-2.692l0.245-0.66l2.003-0.92l0.661,0.246c0.402,0.877,0.816,1.746,1.244,2.607l-0.226,0.668
					l-1.976,0.977L34.153,183.669z M31.664,178.249c-0.389-0.913-0.765-1.835-1.128-2.761l0.282-0.646l2.052-0.805l0.645,0.281
					c0.353,0.897,0.717,1.791,1.094,2.677l-0.263,0.653l-2.029,0.863L31.664,178.249z M29.486,172.697
					c-0.336-0.936-0.659-1.873-0.969-2.82l0.318-0.628l2.094-0.687l0.628,0.317c0.301,0.918,0.614,1.828,0.94,2.733l-0.301,0.638
					l-2.074,0.745L29.486,172.697z M27.629,167.031c-0.282-0.95-0.552-1.907-0.808-2.87l0.354-0.609l2.13-0.565l0.609,0.354
					c0.248,0.934,0.508,1.859,0.783,2.781l-0.336,0.619l-2.113,0.626L27.629,167.031z M26.095,161.271
					c-0.228-0.967-0.442-1.937-0.643-2.912l0.387-0.588l2.159-0.442l0.588,0.387c0.195,0.945,0.403,1.886,0.624,2.821l-0.371,0.599
					l-2.146,0.507L26.095,161.271z M24.892,155.434c-0.173-0.976-0.333-1.955-0.478-2.94l0.42-0.565l2.181-0.322l0.565,0.42
					c0.141,0.955,0.295,1.908,0.462,2.854l-0.403,0.576l-2.17,0.385L24.892,155.434z M24.019,149.54
					c-0.118-0.983-0.222-1.972-0.312-2.962l0.451-0.541l2.195-0.2l0.542,0.451c0.087,0.961,0.188,1.918,0.302,2.871l-0.435,0.554
					l-2.188,0.264L24.019,149.54z"/>
			</g>
		</g>
		<g>
			<g>
				<path fill="#61C4F2" d="M129.639,235.438c-22.436,0-42.331-6.592-57.534-19.063l-0.181-0.423
					c1.391-18.614,14.913-40.592,37.231-44.655l0.582,0.563c-0.127,0.855-0.192,1.713-0.192,2.548
					c0,13.671,15.824,23.793,20.005,23.793c2.438,0,7.896-3.058,12.451-7.995c3.036-3.289,8.026-10.051,7.358-18.379l0.562-0.533
					c10.127,1.365,35.273,16.152,37.408,44.658l-0.182,0.423C171.948,228.846,152.061,235.438,129.639,235.438z"/>
			</g>
			<g>
				<path fill="#445462" d="M148.464,156.555c-1.069,0-2.144-0.039-3.19-0.117c-2.449-0.191-4.776-0.558-6.922-1.088l-0.363-0.604
					l0.529-2.139l0.604-0.364c1.98,0.487,4.132,0.825,6.395,1.003c0.978,0.07,1.971,0.107,2.951,0.107
					c7.932,0,14.52-2.367,18.795-4.463c-2.627-3.854-4.734-7.994-6.269-12.311c-1.908-5.329-2.944-10.971-3.08-16.77h0.008
					c-0.017-0.193-0.017-0.529-0.017-1.17l0.498-0.498h1.812v0.07h0.15v-0.07h0.242l0.498,0.498v0.043l0.146,0.148l0.074,0.6
					l-0.212,0.365c0.132,5.43,1.104,10.714,2.892,15.708c1.636,4.604,3.962,8.984,6.914,13.021l0.745,1.019l-0.164,0.731
					l-1.111,0.602C165.605,153.468,157.919,156.555,148.464,156.555z"/>
			</g>
			<g>
				<path fill="#445462" d="M102.086,156.552c-7.478,0-15.075-1.961-21.969-5.672l-1.115-0.601l-0.166-0.731l0.748-1.021
					c2.95-4.034,5.276-8.414,6.912-13.019c1.577-4.401,2.522-9.041,2.812-13.791l0.527-0.467l2.2,0.134l0.467,0.527
					c-0.308,5.05-1.314,9.986-2.991,14.671c-1.533,4.312-3.64,8.449-6.267,12.304c5.98,2.922,12.48,4.465,18.835,4.465
					c0.971,0,1.953-0.037,2.917-0.107c2.19-0.171,5.164-0.629,7.229-1.114l0.599,0.37l0.504,2.146l-0.371,0.598
					c-2.239,0.527-5.342,1.007-7.72,1.191C104.201,156.514,103.142,156.552,102.086,156.552z"/>
			</g>
			<g>
				<polygon fill="#445462" points="87.138,226.402 86.64,225.904 86.64,204.6 87.138,204.102 89.342,204.102 89.84,204.6 
					89.84,225.904 89.342,226.402 				"/>
			</g>
			<g>
				<polygon fill="#445462" points="162.076,226.402 161.578,225.904 161.578,204.6 162.076,204.102 164.279,204.102 164.777,204.6 
					164.777,225.904 164.279,226.402 				"/>
			</g>
			<g>
				<path fill="#445462" d="M63.629,217.588l-0.498-0.498l0.003-5.658c1.698-22.726,18.374-41.393,40.556-45.433l1.516-0.274
					l0.582,0.563l-0.229,1.522c-0.129,0.855-0.194,1.717-0.194,2.556c0,13.669,16.155,24.29,20.252,24.29
					c2.02,0,7.625-2.911,12.484-8.176c3.116-3.377,8.242-10.31,7.562-18.779l-0.108-1.362l0.562-0.532l1.355,0.184
					c3.123,0.42,6.969,1.635,10.832,3.42l0.242,0.66l-0.926,2l-0.661,0.244c-2.819-1.305-5.585-2.271-8.04-2.815
					c-0.088,6.537-3.078,13.312-8.468,19.151c-4.843,5.248-11.222,9.207-14.836,9.207c-5.494,0-23.453-11.717-23.453-27.49
					c0-0.264,0.005-0.528,0.016-0.795c-22.833,5.186-34.587,25.342-35.851,42.021l0.001,5.497l-0.498,0.498L63.629,217.588
					L63.629,217.588z"/>
			</g>
			<g>
				<path fill="#445462" d="M95.446,110.968l-1.533-1.585l0.011-0.704c0.05-0.049,5.158-5.053,10.708-13.972
					c3.796-6.103,7.69-15.457,7.728-15.549l0.732-1.768l0.855-0.112l1.161,1.518c0.377,0.488,9.281,11.962,17.841,17.858
					c5.761,3.968,12.099,7.042,18.837,9.135l0.328,0.624l-0.653,2.105l-0.624,0.328c-7.047-2.189-13.676-5.404-19.702-9.555
					c-6.926-4.77-13.788-12.663-16.881-16.437c-1.519,3.444-4.176,9.157-6.906,13.543c-5.63,9.05-10.643,14.041-11.196,14.58
					L95.446,110.968z"/>
			</g>
			<g>
				<path fill="#445462" d="M159.262,119.717l-0.834-1.468c-0.41-0.724-10.046-17.773-17.507-33.583l0.238-0.663l1.993-0.94
					l0.662,0.238c5.838,12.37,12.924,25.345,16.104,31.062c5.076-8.989,5.597-23.719,5.445-26.981
					c-0.101-2.167-0.269-5.792-1.757-10.23c-0.305-0.905-3.188-9.013-10.857-15.066c-6.521-5.146-13.85-6.226-18.848-6.226
					c-2.356,0-4.305,0.238-5.522,0.438c-7.887,1.291-13.576,5.221-16.959,8.291l-0.335,0.304l-0.356,0.129l-0.452-0.019
					c-0.315-0.014-0.627-0.021-0.937-0.021c-3.112,0-5.986,0.687-8.541,2.042c-7.73,4.097-10.49,12.568-10.964,14.224
					c-2.559,8.94-0.892,21.949,1.43,27.338l-0.26,0.655l-2.025,0.872l-0.654-0.261c-2.51-5.827-4.321-19.863-1.567-29.484
					c0.537-1.875,3.664-11.466,12.54-16.171c3.024-1.604,6.397-2.416,10.025-2.416c0.144,0,0.288,0.001,0.433,0.004
					c3.676-3.22,9.763-7.28,18.106-8.646c1.331-0.218,3.458-0.478,6.032-0.478c5.511,0,13.598,1.199,20.836,6.912
					c8.226,6.489,11.363,14.934,11.908,16.561c1.633,4.859,1.812,8.765,1.922,11.099c0.194,4.209-0.498,21.835-7.459,31.181
					l-1.008,1.354L159.262,119.717z"/>
			</g>
			<g>
				<path fill="#445462" d="M155.029,123.573l-1.075-1.924l0.192-0.678l2.162-1.205c0.937-0.438,1.387-1.384,1.957-2.581
					c0.18-0.375,0.34-0.711,0.512-1.037l0.674-0.208l1.949,1.031l0.207,0.673c-0.156,0.296-0.305,0.602-0.448,0.91
					c-0.671,1.409-1.507,3.161-3.425,4.075l-2.026,1.134L155.029,123.573z"/>
			</g>
			<g>
				<path fill="#445462" d="M93.636,125.5c-2.584-0.963-4.585-3.154-5.319-5.849l-1.336-4.904c-0.794-2.918,0.596-6.01,3.305-7.35
					c0.391-0.172,1.383-0.551,2.593-0.551c1.672,0,2.957,0.715,3.714,2.069l-0.192,0.678l-1.925,1.075l-0.677-0.192
					c-0.107-0.19-0.318-0.443-0.928-0.443c-0.612,0-1.232,0.264-1.239,0.266c-1.289,0.64-1.957,2.162-1.563,3.607l1.336,4.904
					c0.467,1.713,1.741,3.101,3.407,3.714l0.094,0.038l2.008,0.912l0.248,0.659l-0.911,2.008l-0.659,0.246L93.636,125.5z"/>
			</g>
			<g>
				<path fill="#445462" d="M111.75,116.201c-1.693,0-3.07-1.377-3.07-3.069c0-1.692,1.377-3.07,3.07-3.07
					c1.692,0,3.069,1.377,3.069,3.07C114.819,114.825,113.443,116.201,111.75,116.201z"/>
			</g>
			<g>
				<g>
					<path fill="#445462" d="M103.812,168.725l-0.781-2.062l0.29-0.642c4.312-1.635,7.565-6.194,7.565-10.604v-4.449l0.498-0.497
						h2.204l0.498,0.497v4.449c0,5.668-4.14,11.513-9.631,13.597L103.812,168.725z"/>
				</g>
				<g>
					<path fill="#445462" d="M145.596,169.068c-6.633-2.426-8.996-8.643-8.996-13.65v-4.449l0.498-0.498h2.203l0.498,0.498v4.449
						c0,3.928,1.812,8.786,6.896,10.646l0.297,0.64l-0.758,2.067L145.596,169.068z"/>
				</g>
				<g>
					<path fill="#445462" d="M125.44,157.604c-4.737,0-9.26-1.77-12.735-4.984l-7.077-6.549
						c-7.42-7.981-11.805-18.334-12.374-29.179l0.032-8.541l0.5-0.496l2.203,0.008l0.496,0.5l-0.032,8.451
						c0.526,10.015,4.598,19.621,11.465,27.02l6.959,6.435c2.883,2.668,6.634,4.137,10.562,4.137c4.018,0,7.831-1.526,10.737-4.299
						l6.723-6.414c6.521-7.274,10.416-16.689,10.94-26.484l-0.362-7.535l0.475-0.521l2.201-0.104l0.521,0.474l0.367,7.696
						l-0.003,0.105c-0.554,10.557-4.748,20.706-11.813,28.569l-0.076,0.077l-6.763,6.452
						C134.883,155.764,130.284,157.604,125.44,157.604z"/>
				</g>
				<g>
					<path fill="#445462" d="M126.266,129.779c-1.938-0.014-4.46-1.223-4.947-1.465l-0.614-0.308l-0.275-0.448l0.13-16.654
						c0.017-2.354-1.732-4.332-4.07-4.6c-0.579-0.066-1.187-0.1-1.807-0.1c-2.323,0-4.932,0.465-7.754,1.383l-0.628-0.32
						l-0.681-2.096l0.319-0.627c3.14-1.021,6.083-1.539,8.746-1.539c0.741,0,1.471,0.041,2.17,0.121
						c3.964,0.454,6.934,3.809,6.905,7.802l-0.117,14.926c1.087,0.451,2.048,0.721,2.614,0.725c0.979,0,2.794-0.725,3.519-1.073
						l0.666,0.231l0.961,1.984l-0.231,0.664c-0.294,0.144-2.929,1.393-4.901,1.393H126.266L126.266,129.779z"/>
				</g>
				<g>
					<path fill="#445462" d="M125.766,147.039c-1.757,0-3.44-0.65-4.742-1.829l-0.035-0.703l1.48-1.633l0.703-0.035
						c0.712,0.646,1.633,1,2.594,1c0.922,0,1.814-0.33,2.516-0.93l0.701,0.054l1.436,1.676l-0.055,0.701
						C129.084,146.436,127.452,147.039,125.766,147.039z"/>
				</g>
				<g>
					<path fill="#445462" d="M125.521,140.784c-3.821,0-7.817-2.354-8.262-2.622l-0.167-0.686l1.149-1.881l0.683-0.168
						c0.035,0.021,3.596,2.155,6.597,2.155c3,0,6.557-2.131,6.592-2.151l0.688,0.164l1.149,1.881l-0.167,0.686
						C133.342,138.432,129.346,140.784,125.521,140.784z"/>
				</g>
				<g>
					<path fill="#445462" d="M136.729,116.201c-1.691,0-3.068-1.377-3.068-3.069c0-1.692,1.377-3.07,3.068-3.07
						c1.692,0,3.069,1.377,3.069,3.07C139.798,114.825,138.422,116.201,136.729,116.201z"/>
				</g>
			</g>
		</g>
	</g>
	<g>
		<g>
			<path fill="#61C4F2" d="M211.3,69.269l-0.498-0.498v-2.378l0.498-0.498h23.515c4.131,0,7.492-3.36,7.492-7.491V12.108
				c0-4.131-3.361-7.492-7.492-7.492h-44.235v43.496l-0.498,0.498h-2.377l-0.498-0.498V2.93c0-0.93,0.757-1.687,1.687-1.687h45.924
				c5.99,0,10.865,4.874,10.865,10.865v46.295c0,5.991-4.875,10.865-10.865,10.865L211.3,69.269L211.3,69.269z"/>
		</g>
		<g>
			<polygon fill="#61C4F2" points="197.254,56.692 196.756,56.194 196.756,3.297 197.254,2.799 199.631,2.799 200.129,3.297 
				200.129,56.194 199.631,56.692 			"/>
		</g>
		<g>
			<g>
				<polygon fill="#61C4F2" points="184.116,14.167 183.618,13.669 183.618,11.292 184.116,10.794 189.26,10.794 189.758,11.292 
					189.758,13.669 189.26,14.167 				"/>
			</g>
			<g>
				<polygon fill="#61C4F2" points="184.116,31.065 183.618,30.567 183.618,28.189 184.116,27.691 189.26,27.691 189.758,28.189 
					189.758,30.567 189.26,31.065 				"/>
			</g>
			<g>
				<polygon fill="#61C4F2" points="184.116,45.758 183.618,45.26 183.618,42.883 184.116,42.385 189.26,42.385 189.758,42.883 
					189.758,45.26 189.26,45.758 				"/>
			</g>
		</g>
		<g>
			<g>
				<path fill="#FF3A65" d="M221.585,35.386c-3.515,0-6.375-3.354-6.375-7.478c0-4.123,2.86-7.478,6.375-7.478
					c3.517,0,6.375,3.354,6.375,7.478S225.102,35.386,221.585,35.386z M221.585,23.631c-1.75,0-3.176,1.919-3.176,4.278
					c0,2.359,1.426,4.277,3.176,4.277c1.751,0,3.175-1.918,3.175-4.277C224.76,25.55,223.336,23.631,221.585,23.631z"/>
			</g>
			<g>
				<path fill="#FF3A65" d="M209.754,47.141l-0.498-0.498v-1.102c0-5.893,4.717-10.877,4.917-11.086l0.704-0.014l1.589,1.527
					l0.017,0.703c-0.033,0.034-3.143,3.348-3.873,7.271h17.906c-0.717-3.887-3.738-7.128-3.873-7.271l0.017-0.702l1.588-1.527
					l0.704,0.013c0.199,0.208,4.918,5.169,4.918,11.087v1.102l-0.498,0.498L209.754,47.141L209.754,47.141z"/>
			</g>
		</g>
	</g>
	<g>
		<g>
			<path fill="#61C4F2" d="M67.755,153.41c-0.085,0-0.171-0.008-0.257-0.02c-3.051-0.438-5.97-1.375-8.679-2.781
				c-2.575-1.334-4.886-3.058-6.874-5.121c-3.071,0.664-6.229,1.002-9.39,1.002c-18.865,0-34.213-11.68-34.213-26.036
				c0-14.355,15.348-26.035,34.213-26.035c18.866,0,34.213,11.679,34.213,26.035c0,7.021-3.603,13.583-10.152,18.503
				c-0.165,1.532-0.137,3.074,0.084,4.589c0.365,2.502,1.239,4.89,2.599,7.097c0.368,0.599,0.356,1.361-0.028,1.947
				C68.934,153.104,68.368,153.41,67.755,153.41z M52.563,141.67c0.519,0,1.014,0.223,1.358,0.609
				c1.851,2.09,4.061,3.81,6.568,5.111c1.26,0.652,2.58,1.19,3.936,1.607c-0.629-1.589-1.071-3.241-1.317-4.928
				c-0.308-2.11-0.304-4.26,0.012-6.383c0.072-0.485,0.342-0.928,0.741-1.211c5.982-4.274,9.277-9.965,9.277-16.023
				c0-12.355-13.72-22.406-30.584-22.406c-16.864,0-30.584,10.051-30.584,22.406c0,12.355,13.72,22.406,30.584,22.406
				c3.244,0,6.467-0.383,9.581-1.141C52.273,141.688,52.417,141.67,52.563,141.67z"/>
		</g>
		<g>
			<path fill="#FF3A65" d="M54.677,124.841c-1.898,0-3.443-1.544-3.443-3.443s1.545-3.443,3.443-3.443
				c1.899,0,3.443,1.544,3.443,3.443S56.576,124.841,54.677,124.841z"/>
		</g>
		<g>
			<path fill="#FF3A65" d="M42.241,124.841c-1.898,0-3.444-1.544-3.444-3.443s1.545-3.443,3.444-3.443
				c1.898,0,3.443,1.544,3.443,3.443S44.139,124.841,42.241,124.841z"/>
		</g>
		<g>
			<path fill="#FF3A65" d="M30.133,124.841c-1.898,0-3.443-1.544-3.443-3.443s1.545-3.443,3.443-3.443
				c1.898,0,3.443,1.544,3.443,3.443S32.032,124.841,30.133,124.841z"/>
		</g>
	</g>
	<g>
		<g>
			<path fill="#FF3A65" d="M193.904,239.479v-25.592l0.787-0.406l19.904,14.22l-0.043,0.839l-19.904,11.373L193.904,239.479z
				 M197.104,234.823l12.199-6.972l-12.199-8.715V234.823z"/>
		</g>
		<g>
			<path fill="#61C4F2" d="M182.15,250c-7.543,0-13.68-6.788-13.68-15.133l0.497-0.498h2.378l0.497,0.498
				c0,6.482,4.623,11.76,10.308,11.76h35.83c5.49,0,9.631-5.148,9.631-11.975v-2.625c0-0.567,0.283-1.094,0.759-1.408
				c0.278-0.182,0.599-0.277,0.929-0.277c0.23,0,0.455,0.047,0.667,0.139l14.544,6.24v-22.205l-14.535,6.346
				c-0.213,0.094-0.439,0.142-0.675,0.142c-0.329,0-0.649-0.096-0.924-0.274c-0.479-0.312-0.765-0.842-0.765-1.412v-1.586
				c0-7.035-4.229-12.545-9.631-12.545h-24.312l-0.498-0.498v-2.377l0.498-0.498h24.312c6.988,0,12.58,6.502,12.98,14.938
				l14.561-6.355c0.213-0.094,0.441-0.142,0.676-0.142c0.328,0,0.646,0.095,0.924,0.274c0.479,0.313,0.763,0.842,0.763,1.412v27.342
				c0,0.57-0.282,1.096-0.758,1.408c-0.276,0.183-0.599,0.277-0.931,0.277c-0.229,0-0.452-0.046-0.663-0.135l-14.546-6.243v0.063
				c0,8.75-5.592,15.349-13.006,15.349L182.15,250L182.15,250z"/>
		</g>
		<g>
			<polygon fill="#61C4F2" points="228.109,223.465 227.611,222.967 227.611,220.027 228.109,219.529 230.488,219.529 
				230.986,220.027 230.986,222.967 230.488,223.465 			"/>
		</g>
	</g>
	<g>
		<g>
			<path fill="#61C4F2" d="M14.78,68.57c-0.359,0-0.702-0.111-0.992-0.322c-0.516-0.374-0.779-1.022-0.67-1.65l3.895-22.713
				L0.511,27.798c-0.462-0.451-0.626-1.113-0.427-1.729c0.2-0.615,0.722-1.054,1.361-1.148l22.807-3.314l10.2-20.667
				C34.737,0.36,35.317,0,35.964,0s1.227,0.36,1.513,0.94l10.201,20.667l22.807,3.314c0.641,0.094,1.163,0.534,1.361,1.148
				c0.201,0.614,0.038,1.277-0.427,1.729L54.916,43.885l1.909,11.138l-0.406,0.575L54.076,56l-0.575-0.406l-2.059-12.013
				c-0.095-0.547,0.086-1.105,0.485-1.493l14.69-14.319l-20.302-2.951c-0.549-0.08-1.024-0.424-1.271-0.922l-9.08-18.397
				l-9.078,18.396c-0.247,0.499-0.721,0.843-1.271,0.923L5.312,27.769l14.69,14.32c0.398,0.388,0.579,0.946,0.485,1.493L17.021,63.8
				l18.158-9.547c0.241-0.127,0.512-0.194,0.785-0.194s0.544,0.067,0.786,0.194l12.389,6.513l0.209,0.673l-1.106,2.104l-0.672,0.209
				l-11.604-6.1L15.564,68.376C15.324,68.503,15.053,68.57,14.78,68.57z"/>
		</g>
		<g>
			<path fill="#61C4F2" d="M41.866,30.973c-0.549-0.08-1.024-0.425-1.271-0.922l-5.407-10.955l0.226-0.667l2.132-1.052l0.667,0.226
				l5.015,10.16l13.816,2.007l0.421,0.564l-0.342,2.353l-0.564,0.421L41.866,30.973z"/>
		</g>
	</g>
	<g>
		<polygon fill="#61C4F2" points="26.789,54.955 25.667,52.857 25.871,52.184 30.851,49.518 31.525,49.722 32.647,51.819 
			32.443,52.493 27.462,55.159 		"/>
	</g>
	<g>
		<g>
			<path fill="#61C4F2" d="M191.917,192.398c-2.253,0-6.592-0.722-7.438-0.865l-0.408-0.574l0.443-2.598l0.575-0.406
				c1.765,0.303,5.188,0.814,6.828,0.814c16.354,0,29.659-13.307,29.659-29.66c0-16.354-13.305-29.658-29.659-29.658
				c-6.351,0-12.405,1.979-17.513,5.72l-0.695-0.106l-1.557-2.125l0.106-0.695c5.732-4.2,12.529-6.422,19.657-6.422
				c18.355,0,33.289,14.933,33.289,33.287C225.205,177.465,210.271,192.398,191.917,192.398z"/>
		</g>
		<g>
			<path fill="#61C4F2" d="M193.083,192.398c-8.841,0-15.771-9.918-17.653-25.268l0.434-0.554l2.613-0.321l0.555,0.434
				c1.621,13.207,7.269,22.08,14.053,22.08c8.27,0,14.506-12.752,14.506-29.66c0-16.907-6.236-29.658-14.506-29.658
				c-5.816,0-10.877,6.548-13.204,17.089l-0.593,0.379l-2.572-0.565l-0.379-0.595c2.756-12.483,9.018-19.937,16.748-19.937
				c10.508,0,18.135,13.998,18.135,33.287C211.218,178.398,203.591,192.398,193.083,192.398z"/>
		</g>
		<g>
			<polygon fill="#61C4F2" points="191.616,191.139 191.118,190.641 191.118,127.458 191.616,126.96 194.249,126.96 
				194.747,127.458 194.747,190.641 194.249,191.139 			"/>
		</g>
		<g>
			<polygon fill="#61C4F2" points="185.586,162.333 185.088,161.835 185.088,159.202 185.586,158.704 223.055,158.704 
				223.552,159.202 223.552,161.835 223.055,162.333 			"/>
		</g>
		<g>
			<polygon fill="#61C4F2" points="174.564,178.497 174.066,177.999 174.066,175.365 174.564,174.867 217.911,174.867 
				218.409,175.365 218.409,177.999 217.911,178.497 			"/>
		</g>
		<g>
			<polygon fill="#61C4F2" points="178.975,145.436 178.477,144.938 178.477,142.305 178.975,141.807 218.646,141.807 
				219.145,142.305 219.145,144.938 218.646,145.436 			"/>
		</g>
	</g>
	<g>
		<g>
			<path fill="#61C4F2" d="M8.895,250c-0.93,0-1.687-0.757-1.687-1.688v-45.551c0-0.931,0.757-1.688,1.687-1.688h32.693l0.498,0.498
				v2.379l-0.498,0.498H10.582v42.177H71.86v-16.313l0.498-0.498h2.378l0.498,0.498v18c0,0.931-0.757,1.688-1.687,1.688H8.895z"/>
		</g>
		<g>
			<path fill="#61C4F2" d="M41.137,227.438c-0.348,0-0.683-0.104-0.97-0.307L7.799,204.37l-0.121-0.693l1.368-1.944l0.694-0.123
				l31.397,22.08l10.821-7.609l0.694,0.121l1.367,1.945l-0.121,0.693l-11.792,8.292C41.821,227.333,41.485,227.438,41.137,227.438z"
				/>
		</g>
		<g>
			<polygon fill="#61C4F2" points="7.545,248.109 7.496,247.407 27.252,224.646 27.954,224.596 29.75,226.154 29.8,226.857 
				10.043,249.619 9.341,249.668 			"/>
		</g>
		<g>
			<polygon fill="#61C4F2" points="72.23,249.619 52.474,226.857 52.524,226.154 54.32,224.596 55.022,224.646 74.778,247.407 
				74.729,248.109 72.933,249.668 			"/>
		</g>
	</g>
</g>
</svg>
