<?xml version="1.0" encoding="utf-8"?>
<!-- Generator: Adobe Illustrator 15.0.0, SVG Export Plug-In . SVG Version: 6.00 Build 0)  -->
<!DOCTYPE svg PUBLIC "-//W3C//DTD SVG 1.1//EN" "http://www.w3.org/Graphics/SVG/1.1/DTD/svg11.dtd">
<svg version="1.1" id="Layer_1" xmlns="http://www.w3.org/2000/svg" xmlns:xlink="http://www.w3.org/1999/xlink" x="0px" y="0px"
	 width="250px" height="250px" viewBox="0 0 250 250" enable-background="new 0 0 250 250" xml:space="preserve">
<g>
	<g>
		<polygon fill="#445462" points="12.511,108.803 12.011,108.303 12.011,101.084 12.511,100.584 14.221,100.584 14.721,101.084 
			14.721,108.303 14.221,108.803 		"/>
	</g>
	<g>
		<polygon fill="#445462" points="17.47,113.13 16.97,112.63 16.97,110.92 17.47,110.42 24.555,110.42 25.055,110.92 25.055,112.63 
			24.555,113.13 		"/>
	</g>
	<g>
		<polygon fill="#445462" points="12.511,123.522 12.011,123.022 12.011,116.194 12.511,115.694 14.221,115.694 14.721,116.194 
			14.721,123.022 14.221,123.522 		"/>
	</g>
	<g>
		<polygon fill="#445462" points="1.984,113.131 1.484,112.631 1.484,110.921 1.984,110.421 9.472,110.421 9.972,110.921 
			9.972,112.631 9.472,113.131 		"/>
	</g>
</g>
<g>
	<path fill="#61C4F2" d="M87.174,50.31l-8.531,4.485l-0.726-0.527l1.629-9.499l-6.902-6.727l0.277-0.853l9.538-1.386l4.266-8.643
		h0.896l4.265,8.643l9.538,1.386l0.277,0.853L94.8,44.77l1.629,9.499l-0.726,0.527L87.174,50.31z M82.27,43.64l0.144,0.442
		l-1.067,6.229l5.595-2.941h0.466l5.594,2.941l-1.068-6.229l0.144-0.442l4.526-4.413l-6.255-0.908l-0.376-0.273l-2.797-5.667
		l-2.798,5.667L84,38.319l-6.255,0.908L82.27,43.64z"/>
</g>
<g>
	<path fill="#61C4F2" d="M16.359,50.31l-8.53,4.485l-0.726-0.527l1.629-9.499L1.83,38.042l0.277-0.853l9.538-1.387l4.265-8.642
		h0.896l4.266,8.642l9.537,1.387l0.277,0.853l-6.901,6.727l1.628,9.499l-0.726,0.527L16.359,50.31z M16.591,47.371l5.594,2.941
		l-1.068-6.229l0.144-0.442l4.526-4.413l-6.255-0.908l-0.376-0.273l-2.798-5.667l-2.797,5.667l-0.376,0.273L6.93,39.228l4.526,4.413
		l0.144,0.442l-1.067,6.229l5.594-2.941H16.591z"/>
</g>
<g>
	<path fill="#61C4F2" d="M33.947,53.242l3.266-19.034L23.382,20.727l0.277-0.853l19.111-2.777l8.549-17.318h0.896l8.547,17.318
		l19.11,2.777l0.277,0.853l-13.83,13.48l3.264,19.035l-0.726,0.527l-17.092-8.987l-17.094,8.987L33.947,53.242z M39.935,33.078
		l0.144,0.442l-2.704,15.766l14.16-7.443H52l14.157,7.443L63.453,33.52l0.144-0.442l11.455-11.166l-15.829-2.3l-0.376-0.273
		l-7.08-14.344l-7.08,14.343l-0.376,0.273l-15.829,2.3L39.935,33.078z"/>
</g>
<g>
	<path fill="#5CC5FF" d="M51.767,98.959c-22.717,0-41.198-18.481-41.198-41.198l0.5-0.5h1.71l0.5,0.5
		c0,21.222,17.266,38.487,38.488,38.487l0.5,0.5v1.711L51.767,98.959z"/>
</g>
<g>
	<path fill="#5CC5FF" d="M81.864,82.551l-0.077-0.703c5.539-6.895,8.467-15.223,8.467-24.086l0.5-0.5h1.71l0.5,0.5
		c0,9.349-3.219,18.505-9.064,25.783l-0.703,0.077L81.864,82.551z"/>
</g>
<g>
	<path fill="#5CC5FF" d="M30.014,81.14c-7.253-6.308-11.413-15.434-11.413-25.038l0.5-0.5h1.71l0.5,0.5
		c0,8.819,3.82,17.199,10.482,22.992l0.049,0.706l-1.123,1.291L30.014,81.14z"/>
</g>
<g>
	<path fill="#5CC5FF" d="M51.775,89.268c-0.772,0-1.544-0.026-2.294-0.078l-0.464-0.533l0.116-1.706l0.533-0.465
		c0.688,0.047,1.395,0.071,2.101,0.071l0.588,0.5v1.71l-0.409,0.409l0.022,0.056l-0.096,0.018l-0.017,0.017l-0.002-0.014
		L51.775,89.268z M53.695,88.715l-0.125-1.706l0.462-0.535c0.725-0.054,1.455-0.133,2.17-0.237l0.566,0.422l0.247,1.692
		l-0.421,0.567c-0.768,0.114-1.564,0.202-2.365,0.259L53.695,88.715z M47.117,88.944c-0.778-0.109-1.566-0.249-2.342-0.416
		l-0.384-0.593l0.358-1.672l0.594-0.384c0.708,0.152,1.431,0.28,2.15,0.38l0.426,0.564l-0.237,1.694L47.117,88.944z M58.337,88.109
		l-0.367-1.67l0.38-0.596c0.705-0.156,1.415-0.339,2.112-0.546l0.622,0.337l0.487,1.639l-0.336,0.622
		c-0.746,0.224-1.52,0.424-2.302,0.595L58.337,88.109z M42.466,87.946c-0.76-0.223-1.519-0.474-2.256-0.747l-0.295-0.643
		l0.595-1.604l0.643-0.295c0.694,0.257,1.392,0.488,2.073,0.686l0.34,0.62l-0.479,1.643L42.466,87.946z M38.013,86.289
		c-0.708-0.322-1.423-0.68-2.126-1.064l-0.199-0.678l0.819-1.501l0.679-0.2c0.64,0.349,1.296,0.678,1.952,0.978l0.248,0.662
		l-0.71,1.555L38.013,86.289z M33.842,84.011c-0.671-0.432-1.328-0.888-1.952-1.356l-0.1-0.7l1.025-1.369l0.701-0.1
		c0.577,0.433,1.18,0.852,1.792,1.246l0.15,0.69l-0.924,1.439L33.842,84.011z M30.021,81.144l-0.054-0.707l1.117-1.295l0.769,0.64
		l-1.073,1.333l-0.715,0.066L30.021,81.144z"/>
</g>
<g>
	<path fill="#5CC5FF" d="M77.114,73.881l-0.133-0.694c3.429-5.049,5.241-10.957,5.241-17.085l0.5-0.5h1.71l0.5,0.5
		c0,6.669-1.974,13.104-5.708,18.608l-0.694,0.133L77.114,73.881z"/>
</g>
<g>
	<g>
		<path fill="#FF3A65" d="M51.766,81.47c-7.9,0-14.327-6.427-14.327-14.327s6.427-14.328,14.327-14.328s14.327,6.428,14.327,14.328
			S59.666,81.47,51.766,81.47z M51.766,55.526c-6.405,0-11.616,5.211-11.616,11.617c0,6.405,5.211,11.616,11.616,11.616
			c6.405,0,11.617-5.211,11.617-11.616C63.383,60.737,58.171,55.526,51.766,55.526z"/>
	</g>
	<g>
		<g>
			<path fill="#FF3A65" d="M52.11,71.803c-3.538,0-6.416-2.878-6.416-6.416c0-3.538,2.878-6.416,6.416-6.416
				s6.416,2.878,6.416,6.416C58.526,68.925,55.647,71.803,52.11,71.803z M52.11,61.681c-2.043,0-3.706,1.663-3.706,3.706
				c0,2.043,1.663,3.706,3.706,3.706s3.706-1.662,3.706-3.706C55.816,63.343,54.153,61.681,52.11,61.681z"/>
		</g>
		<g>
			<path fill="#FF3A65" d="M43.498,78.607l-0.5-0.5v-1.391c0-3.249,1.266-6.304,3.563-8.602h0.707l1.209,1.209v0.707
				c-1.786,1.787-2.77,4.161-2.77,6.686v1.391l-0.5,0.5H43.498z"/>
		</g>
		<g>
			<path fill="#FF3A65" d="M59.074,77.99l-0.5-0.5v-1.332c0-2.391-0.976-4.642-2.748-6.337l-0.016-0.707l1.183-1.236l0.707-0.016
				c2.279,2.181,3.585,5.205,3.585,8.295v1.332l-0.5,0.5L59.074,77.99L59.074,77.99z"/>
		</g>
	</g>
</g>
<g>
	<g>
		<polygon fill="#445462" points="239.088,118.341 238.588,117.841 238.588,26.609 114.535,26.609 114.535,87.917 114.035,88.417 
			112.325,88.417 111.825,87.917 111.825,24.399 112.325,23.899 240.798,23.899 241.298,24.399 241.298,117.841 240.798,118.341 		
			"/>
	</g>
	<g>
		<polygon fill="#445462" points="112.325,118.34 111.825,117.84 111.825,100.023 112.325,99.523 114.035,99.523 114.535,100.023 
			114.535,117.84 114.035,118.34 		"/>
	</g>
	<g>
		<path fill="#445462" d="M136.184,141.048l-0.5-0.5v-1.711l0.5-0.5h101.006c5.847,0,10.603-4.755,10.603-10.599v-3.361h-142.62
			v3.361c0,5.844,4.755,10.599,10.599,10.599l0.5,0.5v1.711l-0.5,0.5c-7.339,0-13.31-5.971-13.31-13.31v-5.572l0.5-0.5H250l0.5,0.5
			v5.572c0,7.339-5.971,13.31-13.311,13.31H136.184z"/>
	</g>
	<g>
		<polygon fill="#61C4F2" points="228.876,117.988 228.376,117.488 228.376,37.627 202.822,37.627 202.322,37.127 202.322,35.417 
			202.822,34.917 230.586,34.917 231.086,35.417 231.086,117.488 230.586,117.988 		"/>
	</g>
	<g>
		<polygon fill="#61C4F2" points="122.185,86.382 121.685,85.882 121.685,35.417 122.185,34.917 150.3,34.917 150.8,35.417 
			150.8,37.127 150.3,37.627 124.395,37.627 124.395,85.882 123.895,86.382 		"/>
	</g>
	<g>
		<polygon fill="#5CC5FF" points="158.697,132.285 158.197,131.785 158.197,130.074 158.697,129.574 194.262,129.574 
			194.762,130.074 194.762,131.785 194.262,132.285 		"/>
	</g>
	<g>
		<path fill="#445462" d="M209.451,85.31l-0.35-0.612l0.067-0.254l0.615-0.352l1.649,0.456l0.35,0.614l-0.069,0.253l-0.614,0.35
			L209.451,85.31z M210.068,82.903l-0.389-0.59c0.143-0.691,0.268-1.418,0.37-2.162l0.563-0.426l1.693,0.234l0.428,0.563
			c-0.107,0.78-0.242,1.565-0.399,2.335l-0.591,0.389L210.068,82.903z M140.434,82.85c-0.158-0.778-0.293-1.563-0.398-2.335
			l0.428-0.564l1.695-0.232l0.562,0.428c0.098,0.719,0.223,1.445,0.369,2.16l-0.39,0.59l-1.677,0.343L140.434,82.85z
			 M210.743,78.505l-0.464-0.535c0.055-0.735,0.084-1.473,0.092-2.193l0.505-0.495l1.71,0.017l0.495,0.504
			c-0.007,0.787-0.04,1.583-0.099,2.365l-0.534,0.461L210.743,78.505z M139.786,78.163c-0.056-0.764-0.089-1.56-0.097-2.365
			l0.494-0.505l1.711-0.017l0.506,0.496c0.007,0.738,0.037,1.476,0.09,2.192l-0.463,0.535l-1.705,0.126L139.786,78.163z
			 M210.32,73.584c-0.037-0.704-0.1-1.439-0.188-2.185l0.438-0.555l1.699-0.202l0.555,0.438c0.091,0.76,0.158,1.553,0.203,2.357
			l-0.471,0.527l-1.709,0.093L210.32,73.584z M140.215,73.959l-0.472-0.526c0.043-0.779,0.11-1.572,0.202-2.356l0.558-0.438
			l1.699,0.203l0.437,0.555c-0.086,0.734-0.148,1.469-0.188,2.184l-0.526,0.472L140.215,73.959z M209.807,69.235
			c-0.138-0.732-0.295-1.452-0.471-2.14l0.361-0.608l1.658-0.42l0.606,0.362c0.19,0.755,0.362,1.533,0.507,2.311l-0.4,0.583
			l-1.682,0.312L209.807,69.235z M140.703,69.319l-0.4-0.583c0.146-0.78,0.316-1.557,0.508-2.312l0.606-0.363l1.658,0.421
			l0.36,0.608c-0.178,0.7-0.336,1.419-0.468,2.14l-0.583,0.401L140.703,69.319z M208.73,64.988
			c-0.223-0.689-0.473-1.383-0.742-2.062l0.279-0.65l1.59-0.631l0.649,0.28c0.285,0.72,0.556,1.469,0.802,2.226l-0.32,0.63
			l-1.627,0.528L208.73,64.988z M141.786,64.78l-0.322-0.628c0.236-0.736,0.507-1.487,0.802-2.233l0.649-0.28l1.59,0.631l0.28,0.649
			c-0.268,0.674-0.518,1.369-0.743,2.065l-0.629,0.322L141.786,64.78z M207.113,60.917c-0.307-0.653-0.645-1.307-1-1.945
			l0.193-0.681l1.495-0.831l0.681,0.194c0.377,0.678,0.74,1.385,1.08,2.102l-0.237,0.666l-1.546,0.733L207.113,60.917z
			 M143.45,60.411l-0.237-0.667c0.342-0.719,0.706-1.427,1.082-2.106l0.682-0.194l1.496,0.831l0.192,0.68
			c-0.363,0.653-0.7,1.31-1.003,1.95l-0.666,0.238L143.45,60.411z M204.99,57.092c-0.401-0.622-0.819-1.229-1.244-1.803l0.105-0.7
			l1.375-1.016l0.698,0.105c0.466,0.631,0.917,1.286,1.343,1.946l-0.149,0.691l-1.438,0.926L204.99,57.092z M145.664,56.296
			l-0.148-0.691c0.428-0.664,0.881-1.319,1.344-1.947l0.699-0.105l1.377,1.015l0.105,0.699c-0.434,0.586-0.854,1.194-1.248,1.807
			l-0.691,0.149L145.664,56.296z M202.391,53.569c-0.47-0.555-0.963-1.104-1.468-1.631l0.015-0.707l1.233-1.184l0.708,0.015
			c0.538,0.562,1.07,1.153,1.582,1.758l-0.061,0.705l-1.308,1.103L202.391,53.569z M148.389,52.504l-0.06-0.705
			c0.511-0.605,1.044-1.197,1.584-1.759l0.707-0.014l1.233,1.185l0.014,0.707c-0.499,0.521-0.993,1.069-1.469,1.631l-0.703,0.059
			L148.389,52.504z M199.354,50.405c-0.545-0.5-1.104-0.981-1.662-1.429l-0.075-0.703l1.073-1.332l0.703-0.076
			c0.617,0.499,1.221,1.018,1.793,1.542l0.03,0.707l-1.155,1.26L199.354,50.405z M152.73,50.356l-1.156-1.262l0.031-0.707
			c0.576-0.528,1.18-1.046,1.797-1.541l0.701,0.077l1.072,1.332l-0.076,0.703c-0.565,0.455-1.125,0.935-1.662,1.428L152.73,50.356z
			 M195.939,47.655c-0.597-0.42-1.213-0.826-1.832-1.206l-0.164-0.688l0.894-1.459l0.688-0.165c0.675,0.415,1.34,0.853,1.978,1.302
			l0.12,0.697l-0.986,1.398L195.939,47.655z M156.152,47.519l-0.983-1.398l0.122-0.697c0.639-0.449,1.305-0.886,1.975-1.298
			l0.688,0.166l0.894,1.46l-0.166,0.688c-0.621,0.379-1.236,0.783-1.83,1.201L156.152,47.519z M192.201,45.364
			c-0.646-0.339-1.311-0.662-1.975-0.959l-0.252-0.66l0.695-1.562l0.661-0.253c0.71,0.317,1.427,0.666,2.131,1.036l0.21,0.675
			l-0.797,1.514L192.201,45.364z M159.911,45.148l-0.798-1.515l0.211-0.676c0.711-0.373,1.427-0.72,2.126-1.032l0.661,0.253
			l0.697,1.562l-0.254,0.66c-0.673,0.301-1.334,0.623-1.969,0.957L159.911,45.148z M188.197,43.577
			c-0.689-0.254-1.389-0.488-2.079-0.695l-0.336-0.622l0.487-1.639l0.623-0.336c0.75,0.224,1.504,0.476,2.244,0.75l0.295,0.642
			l-0.594,1.604L188.197,43.577z M163.938,43.28l-0.595-1.604l0.296-0.643c0.743-0.275,1.498-0.527,2.245-0.749l0.622,0.336
			l0.488,1.639l-0.337,0.622c-0.698,0.209-1.397,0.442-2.077,0.694L163.938,43.28z M183.998,42.324
			c-0.708-0.162-1.432-0.303-2.15-0.419l-0.414-0.573l0.272-1.688l0.573-0.414c0.775,0.126,1.558,0.278,2.322,0.453l0.375,0.599
			l-0.381,1.667L183.998,42.324z M168.182,41.947l-0.383-1.667l0.376-0.599c0.763-0.175,1.546-0.327,2.323-0.452l0.572,0.414
			l0.271,1.688l-0.412,0.573c-0.722,0.117-1.445,0.258-2.15,0.418L168.182,41.947z M179.675,41.625
			c-0.728-0.069-1.465-0.117-2.188-0.14l-0.484-0.516l0.057-1.709l0.516-0.483c0.781,0.025,1.574,0.075,2.359,0.15l0.45,0.545
			l-0.161,1.703L179.675,41.625z M172.559,41.174l-0.162-1.703l0.451-0.545c0.787-0.076,1.582-0.126,2.359-0.15l0.516,0.484
			l0.055,1.709l-0.482,0.516c-0.723,0.023-1.459,0.071-2.189,0.14L172.559,41.174z"/>
	</g>
</g>
<g>
	<g>
		<path fill="#61C4F2" d="M212.451,223.93c-0.312,0-0.619-0.064-0.908-0.193c-0.866-0.383-1.386-1.24-1.324-2.186l0.461-7.144
			c0.299-4.706,0.422-6.651,2.568-11.361c0.1-0.202,18.693-38.554,18.882-38.94l0.66-0.235l12.012,5.558l0.24,0.672l-19.017,39.236
			c-1.696,3.723-3.139,5.104-5.319,7.189l-0.093,0.088c-0.579,0.557-1.231,1.183-1.961,1.924c-1.662,1.691-3.385,3.451-4.608,4.713
			C213.622,223.688,213.057,223.93,212.451,223.93z M215.706,204.189c-1.935,4.24-2.039,5.914-2.322,10.39l-0.375,5.825
			c0.985-0.989,2.132-2.156,3.271-3.317l0.441-0.448c0.795-0.81,1.493-1.479,2.111-2.07c2.094-2.004,3.247-3.107,4.74-6.385
			l18.051-37.24l-7.999-3.701L215.706,204.189z"/>
	</g>
	<g>
		<polygon fill="#61C4F2" points="207.693,229.83 207.445,229.169 210.684,222.025 211.346,221.777 212.902,222.482 
			213.152,223.145 209.913,230.288 209.251,230.537 		"/>
	</g>
	<g>
		<path fill="#61C4F2" d="M220.785,214.255c-0.092-0.157-2.273-3.866-6.454-3.866c-0.489,0-0.994,0.051-1.502,0.152l-0.589-0.393
			l-0.336-1.676l0.392-0.59c0.679-0.136,1.356-0.205,2.019-0.205c5.531,0,8.496,4.682,8.815,5.215l-0.178,0.694l-0.742,0.425
			l-0.742,0.428L220.785,214.255z"/>
	</g>
	<g>
		<path fill="#61C4F2" d="M231.697,166.113l-0.245-0.661l4.007-8.787l0.665-0.247l12.047,5.571l0.245,0.661l-4.007,8.789
			l-0.665,0.246L231.697,166.113z M242.865,168.293l2.173-4.764l-8.035-3.719l-2.173,4.765L242.865,168.293z"/>
	</g>
	<g>
		<path fill="#61C4F2" d="M245.665,158.789l-0.248-0.662l2.319-5.089c0.13-0.284,0.01-0.62-0.27-0.748l-3.591-1.661
			c-0.069-0.031-0.146-0.049-0.226-0.049c-0.062,0-0.125,0.011-0.188,0.033c-0.137,0.052-0.246,0.152-0.307,0.287l-2.199,4.822
			l-0.662,0.248l-1.557-0.709l-0.248-0.662l2.197-4.82c0.363-0.799,1.017-1.404,1.834-1.707c0.364-0.137,0.744-0.204,1.129-0.204
			c0.472,0,0.93,0.103,1.361,0.301l3.59,1.662c1.627,0.752,2.344,2.694,1.599,4.332l-2.317,5.088l-0.662,0.248L245.665,158.789z"/>
	</g>
</g>
<g>
	<polygon fill="#445462" points="176.387,241.311 175.887,240.811 175.887,239.1 176.387,238.6 233.117,238.6 233.117,203.904 
		233.617,203.404 235.327,203.404 235.827,203.904 235.827,240.811 235.327,241.311 	"/>
</g>
<g>
	<polygon fill="#445462" points="233.617,150.984 233.117,150.484 233.117,143.268 233.617,142.768 235.327,142.768 
		235.827,143.268 235.827,150.484 235.327,150.984 	"/>
</g>
<g>
	<path fill="#445462" d="M212.757,167.176l-0.5-0.5v-1.71l0.5-0.5h2.28l0.5,0.5v1.71l-0.5,0.5H212.757z M208.197,167.176l-0.5-0.5
		v-1.71l0.5-0.5h2.279l0.5,0.5v1.71l-0.5,0.5H208.197z M203.637,167.176l-0.5-0.5v-1.71l0.5-0.5h2.279l0.5,0.5v1.71l-0.5,0.5
		H203.637z"/>
</g>
<g>
	<polygon fill="#445462" points="182.104,167.176 181.604,166.676 181.604,164.966 182.104,164.466 203.637,164.466 
		204.137,164.966 204.137,166.676 203.637,167.176 	"/>
</g>
<g>
	<polygon fill="#445462" points="182.104,179.698 181.604,179.198 181.604,177.488 182.104,176.988 213.898,176.988 
		214.398,177.488 214.398,179.198 213.898,179.698 	"/>
</g>
<g>
	<path fill="#445462" d="M202.83,204.745l-0.5-0.5v-1.711l0.5-0.5h2.279l0.5,0.5v1.711l-0.5,0.5H202.83z M198.27,204.745l-0.5-0.5
		v-1.711l0.5-0.5h2.28l0.5,0.5v1.711l-0.5,0.5H198.27z M193.709,204.745l-0.5-0.5v-1.711l0.5-0.5h2.279l0.5,0.5v1.711l-0.5,0.5
		H193.709z M189.148,204.745l-0.5-0.5v-1.711l0.5-0.5h2.278l0.5,0.5v1.711l-0.5,0.5H189.148z M184.587,204.745l-0.5-0.5v-1.711
		l0.5-0.5h2.28l0.5,0.5v1.711l-0.5,0.5H184.587z M180.027,204.745l-0.5-0.5v-1.711l0.5-0.5h2.279l0.5,0.5v1.711l-0.5,0.5H180.027z
		 M175.465,204.745l-0.5-0.5v-1.711l0.5-0.5h2.28l0.5,0.5v1.711l-0.5,0.5H175.465z"/>
</g>
<g>
	<polygon fill="#445462" points="175.465,217.268 174.965,216.768 174.965,215.057 175.465,214.557 203.893,214.557 
		204.393,215.057 204.393,216.768 203.893,217.268 	"/>
</g>
<g>
	<polygon fill="#445462" points="175.465,192.223 174.965,191.723 174.965,190.012 175.465,189.512 203.893,189.512 
		204.393,190.012 204.393,191.723 203.893,192.223 	"/>
</g>
<g>
	<g>
		<path fill="#5CC5FF" d="M45.794,140.732c-3.423,0-6.208-2.784-6.208-6.207c0-3.424,2.785-6.207,6.208-6.207
			s6.208,2.783,6.208,6.207C52.002,137.948,49.217,140.732,45.794,140.732z M45.794,131.027c-1.928,0-3.497,1.568-3.497,3.498
			c0,1.929,1.569,3.498,3.497,3.498c1.928,0,3.497-1.569,3.497-3.498C49.291,132.596,47.722,131.027,45.794,131.027z"/>
	</g>
	<g>
		<polygon fill="#5CC5FF" points="0,245.628 -0.5,245.128 -0.5,138.08 0,137.58 20.421,137.58 20.921,138.08 20.921,139.79 
			20.421,140.29 2.21,140.29 2.21,242.918 88.977,242.918 88.977,140.29 70.766,140.29 70.266,139.79 70.266,138.08 70.766,137.58 
			91.187,137.58 91.687,138.08 91.687,245.128 91.187,245.628 		"/>
	</g>
	<g>
		<path fill="#5CC5FF" d="M25.684,147.34l-0.5-0.5v-15.433l0.5-0.5h7.853c1.007-5.739,6.054-10.014,11.917-10.014
			c5.864,0,10.911,4.275,11.917,10.014h7.854l0.5,0.5v15.433l-0.499,0.5H25.684z M63.015,144.63v-11.013h-7.642l-0.499-0.467
			l-0.054-0.797c-0.336-4.906-4.45-8.75-9.366-8.75s-9.03,3.844-9.366,8.75l-0.055,0.797l-0.499,0.467h-7.64v11.013H63.015z"/>
	</g>
	<g>
		<polygon fill="#5CC5FF" points="11.961,234.498 11.461,233.998 11.461,139.581 11.961,139.081 13.672,139.081 14.172,139.581 
			14.172,231.788 76.948,231.788 76.948,139.884 77.448,139.384 79.158,139.384 79.658,139.884 79.658,233.998 79.158,234.498 		"/>
	</g>
	<g>
		<polygon fill="#445462" points="22.346,194.812 21.846,194.312 21.846,157.297 22.346,156.797 24.057,156.797 24.557,157.297 
			24.557,192.104 67.151,192.104 67.651,192.604 67.651,194.312 67.151,194.812 		"/>
	</g>
	<g>
		<polygon fill="#445462" points="46.675,186.085 36.917,175.242 24.829,183.986 24.131,183.874 23.129,182.488 23.241,181.79 
			36.937,171.881 37.602,171.951 47.243,182.663 61.722,170.18 62.427,170.232 63.544,171.527 63.493,172.232 47.374,186.13 		"/>
	</g>
	<g>
		<polygon fill="#445462" points="58.296,180.85 57.991,180.212 60.496,173.119 53.102,174.932 52.497,174.564 52.09,172.904 
			52.457,172.3 63.821,169.512 64.412,170.163 60.547,181.113 59.909,181.419 		"/>
	</g>
	<g>
		<polygon fill="#445462" points="22.088,207.053 21.588,206.553 21.588,204.843 22.088,204.343 65.483,204.343 65.983,204.843 
			65.983,206.553 65.483,207.053 		"/>
	</g>
	<g>
		<path fill="#5CC5FF" d="M58.575,218.18l-0.5-0.5v-1.711l0.5-0.5h2.28l0.5,0.5v1.711l-0.5,0.5H58.575z M54.015,218.18l-0.5-0.5
			v-1.711l0.5-0.5h2.28l0.5,0.5v1.711l-0.5,0.5H54.015z M49.453,218.18l-0.5-0.5v-1.711l0.5-0.5h2.281l0.5,0.5v1.711l-0.5,0.5
			H49.453z M44.893,218.18l-0.5-0.5v-1.711l0.5-0.5h2.28l0.5,0.5v1.711l-0.5,0.5H44.893z M40.332,218.18l-0.5-0.5v-1.711l0.5-0.5
			h2.28l0.5,0.5v1.711l-0.5,0.5H40.332z M35.771,218.18l-0.5-0.5v-1.711l0.5-0.5h2.281l0.5,0.5v1.711l-0.5,0.5H35.771z
			 M31.21,218.18l-0.5-0.5v-1.711l0.5-0.5h2.28l0.5,0.5v1.711l-0.5,0.5H31.21z M26.65,218.18l-0.5-0.5v-1.711l0.5-0.5h2.28l0.5,0.5
			v1.711l-0.5,0.5H26.65z M22.088,218.18l-0.5-0.5v-1.711l0.5-0.5h2.281l0.5,0.5v1.711l-0.5,0.5H22.088z"/>
	</g>
	<g>
		<polygon fill="#5CC5FF" points="99.676,235.684 99.176,235.184 99.176,183.262 99.676,182.762 101.386,182.762 101.886,183.262 
			101.886,235.184 101.386,235.684 		"/>
	</g>
	<g>
		<polygon fill="#5CC5FF" points="99.676,156.439 99.176,155.939 99.176,151.001 99.676,150.501 101.386,150.501 101.886,151.001 
			101.886,155.939 101.386,156.439 		"/>
	</g>
</g>
<g>
	<polygon fill="#61C4F2" points="128.034,250.626 127.534,250.126 127.534,230.389 128.034,229.889 173.107,229.889 
		173.607,230.389 173.607,250.126 173.107,250.626 	"/>
</g>
<g>
	<polygon fill="#FF3A65" points="76.871,113.39 64.201,120.05 63.476,119.523 65.897,105.416 55.645,95.423 55.922,94.57 
		70.088,92.512 76.423,79.676 77.319,79.676 83.654,92.512 97.82,94.57 98.097,95.423 87.847,105.416 90.267,119.523 89.542,120.05 
			"/>
</g>
<g>
	<polygon fill="#FF3A65" points="136.67,113.66 124,120.32 123.275,119.793 125.693,105.686 115.444,95.694 115.721,94.841 
		129.887,92.783 136.223,79.947 137.118,79.947 143.453,92.783 157.619,94.841 157.896,95.694 147.645,105.686 150.064,119.793 
		149.34,120.32 	"/>
</g>
<g>
	<polygon fill="#FF3A65" points="196.342,114.721 183.672,121.38 182.945,120.854 185.365,106.746 175.116,96.754 175.393,95.901 
		189.559,93.843 195.895,81.007 196.79,81.007 203.126,93.843 217.293,95.901 217.568,96.754 207.318,106.746 209.738,120.854 
		209.014,121.38 	"/>
</g>
<g>
	<g>
		<path fill="#445462" d="M178.939,118.938l2.64-15.373l-11.17-10.888l0.276-0.853l15.436-2.243l6.902-13.987h0.896l6.904,13.987
			l15.435,2.243l0.276,0.853l-11.168,10.888l2.635,15.373l-0.727,0.527l-13.805-7.258l-13.807,7.258L178.939,118.938z
			 M193.705,109.267l10.869,5.714l-2.074-12.104l0.145-0.442l8.793-8.573l-12.151-1.766l-0.376-0.273l-5.438-11.013l-5.436,11.013
			l-0.376,0.273l-12.153,1.766l8.795,8.573l0.146,0.442l-2.076,12.104l10.869-5.714H193.705z"/>
	</g>
	<g>
		<path fill="#445462" d="M73.75,112.206l-13.805,7.258l-0.726-0.527l2.637-15.373l-11.17-10.888l0.277-0.853l15.436-2.242
			l6.903-13.987h0.896l6.904,13.987l15.435,2.242l0.277,0.853l-11.17,10.888l2.638,15.373l-0.726,0.527L73.75,112.206z
			 M84.855,114.982l-2.076-12.104l0.144-0.442l8.794-8.572l-12.153-1.767l-0.376-0.273L73.75,80.811l-5.435,11.013l-0.376,0.273
			l-12.153,1.767l8.794,8.572l0.144,0.442l-2.076,12.104l10.871-5.714h0.465L84.855,114.982z"/>
	</g>
	<g>
		<path fill="#445462" d="M119.081,118.938l2.636-15.373l-11.17-10.888l0.277-0.853l15.436-2.243l6.903-13.987h0.896l6.903,13.987
			l15.437,2.242l0.276,0.853l-11.17,10.888l2.636,15.374l-0.726,0.527l-13.806-7.258l-13.804,7.258L119.081,118.938z
			 M144.714,114.981l-2.075-12.104l0.145-0.442l8.794-8.572l-12.153-1.767l-0.376-0.273l-5.437-11.012l-5.435,11.012l-0.376,0.273
			l-12.154,1.767l8.795,8.572l0.144,0.442l-2.075,12.104l10.869-5.714h0.466L144.714,114.981z"/>
	</g>
</g>
<g>
	<g>
		<g>
			<g>
				<path fill="#445462" d="M129.652,167.48l-0.066-10.414c-0.008-1.366,0.518-2.654,1.477-3.625s2.239-1.512,3.604-1.521
					l5.039-0.031c1.386,0,2.661,0.523,3.626,1.477c0.971,0.957,1.511,2.236,1.52,3.604l0.051,7.711l-0.496,0.504l-1.711,0.01
					l-0.504-0.498l-0.049-7.709c-0.004-0.643-0.259-1.243-0.716-1.692c-0.452-0.448-1.053-0.694-1.688-0.694l-5.053,0.032
					c-0.644,0.005-1.246,0.259-1.697,0.716c-0.449,0.454-0.695,1.061-0.691,1.702l0.064,10.415l-0.496,0.503l-1.709,0.011
					L129.652,167.48z"/>
			</g>
			<g>
				<path fill="#445462" d="M142.225,169.764l-0.062-9.779c-0.019-2.819,2.262-5.129,5.081-5.146l5.039-0.031
					c2.834,0,5.128,2.278,5.146,5.08l0.021,3.504l-0.496,0.504l-1.711,0.012l-0.504-0.497l-0.022-3.504
					c-0.008-1.316-1.086-2.388-2.401-2.388c-0.059,0-5.055,0.031-5.055,0.031c-1.326,0.01-2.396,1.096-2.39,2.42l0.062,9.779
					l-0.496,0.503l-1.709,0.011L142.225,169.764z"/>
			</g>
		</g>
		<g>
			<path fill="#445462" d="M162.35,219.002l-0.494-0.507l0.09-6.777l0.201-0.394l0.336-0.252c0.832-0.627,1.578-1.359,2.218-2.176
				c1.847-2.369,2.854-5.193,2.837-7.955l-0.244-38.125c-0.008-1.315-1.086-2.387-2.402-2.387c-0.058,0-5.055,0.032-5.055,0.032
				c-0.645,0.004-1.245,0.259-1.693,0.714c-0.453,0.457-0.699,1.062-0.695,1.705l0.05,7.571L157,170.955l-1.71,0.011l-0.503-0.497
				l-0.049-7.57c-0.01-1.367,0.515-2.654,1.475-3.625c0.958-0.972,2.238-1.512,3.605-1.521l5.037-0.029
				c2.838,0,5.131,2.277,5.146,5.078l0.244,38.125c0.021,3.368-1.189,6.791-3.411,9.639c-0.644,0.822-1.379,1.58-2.192,2.254
				l-0.076,5.714l-0.508,0.493L162.35,219.002z"/>
		</g>
		<g>
			<path fill="#445462" d="M131.279,229.578l-0.5-0.5v-12.604c-4.648-0.354-8.907-2.684-11.465-6.295
				c-0.401-0.568-0.764-1.162-1.08-1.765l-0.889-1.692l-19.94-34.596c-1.008-1.75-1.273-3.79-0.748-5.745
				c0.525-1.954,1.778-3.586,3.528-4.594l0.102-0.06c1.151-0.664,2.455-1.014,3.774-1.014c2.707,0,5.225,1.451,6.571,3.787
				l6.519,11.311l-0.277-43.196c-0.014-2.021,0.761-3.929,2.182-5.367c1.422-1.438,3.317-2.239,5.339-2.252l0.122-0.001
				c4.199,0,7.594,3.374,7.624,7.521l0.229,35.985l-0.496,0.503l-1.71,0.012l-0.504-0.496l-0.229-35.986
				c-0.019-2.662-2.199-4.829-4.861-4.829l-0.149,0.002c-1.304,0.007-2.522,0.521-3.434,1.444c-0.913,0.925-1.411,2.147-1.402,3.447
				l0.3,46.873c0.006,0.799-0.509,1.479-1.283,1.689c-0.152,0.042-0.309,0.062-0.466,0.062c-0.621,0-1.18-0.326-1.496-0.873
				l-8.354-14.496c-0.865-1.5-2.482-2.434-4.22-2.434c-0.846,0-1.682,0.225-2.418,0.649l-0.104,0.061
				c-2.323,1.341-3.125,4.316-1.788,6.638l19.967,34.644l0.915,1.741c0.258,0.494,0.559,0.984,0.893,1.457
				c2.304,3.256,6.232,5.199,10.508,5.199l0.953-0.006l0.502,0.5v14.771l-0.5,0.5h-1.714V229.578z"/>
		</g>
	</g>
	<g>
		<g>
			<polygon fill="#445462" points="168.604,246.882 168.104,246.382 168.117,228.504 126.443,228.469 126.43,246.348 
				125.93,246.848 124.218,246.846 123.719,246.346 123.735,226.258 124.235,225.758 170.329,225.795 170.829,226.295 
				170.812,246.384 170.312,246.884 			"/>
		</g>
		<g>
			<polygon fill="#445462" points="150.979,239.809 150.479,239.309 150.479,237.598 150.979,237.098 160.398,237.098 
				160.898,237.598 160.898,239.309 160.398,239.809 			"/>
		</g>
	</g>
</g>
</svg>
