<?xml version="1.0" encoding="utf-8"?>
<!-- Generator: Adobe Illustrator 15.0.0, SVG Export Plug-In . SVG Version: 6.00 Build 0)  -->
<!DOCTYPE svg PUBLIC "-//W3C//DTD SVG 1.1//EN" "http://www.w3.org/Graphics/SVG/1.1/DTD/svg11.dtd">
<svg version="1.1" id="Layer_1" xmlns="http://www.w3.org/2000/svg" xmlns:xlink="http://www.w3.org/1999/xlink" x="0px" y="0px"
	 width="250px" height="250px" viewBox="0 0 250 250" enable-background="new 0 0 250 250" xml:space="preserve">
<g>
	<path fill="#445462" d="M116.56,55.647l-0.239-0.666c0.406-0.861,0.784-1.753,1.123-2.651l0.645-0.292l2.112,0.797l0.291,0.645
		c-0.368,0.974-0.779,1.945-1.222,2.888l-0.666,0.24L116.56,55.647z M118.695,50.216l-0.341-0.619
		c0.263-0.911,0.495-1.851,0.689-2.795l0.59-0.389l2.211,0.453l0.39,0.591c-0.21,1.02-0.463,2.044-0.752,3.044l-0.62,0.342
		L118.695,50.216z M119.944,44.518l-0.435-0.558c0.118-0.947,0.2-1.914,0.244-2.871l0.522-0.477l2.254,0.102l0.477,0.522
		c-0.046,1.038-0.135,2.09-0.264,3.125l-0.558,0.435L119.944,44.518z M119.772,38.207c-0.03-0.945-0.099-1.912-0.204-2.874
		l0.442-0.551l2.243-0.247l0.552,0.442c0.114,1.044,0.188,2.097,0.221,3.127l-0.484,0.515l-2.255,0.071L119.772,38.207z
		 M119.143,32.486c-0.181-0.947-0.399-1.89-0.65-2.804l0.35-0.615l2.176-0.597l0.614,0.35c0.277,1.008,0.516,2.037,0.71,3.056
		l-0.398,0.585l-2.218,0.422L119.143,32.486z M117.621,26.937c-0.324-0.901-0.689-1.799-1.085-2.667l0.249-0.663l2.056-0.932
		l0.662,0.249c0.426,0.938,0.824,1.916,1.183,2.908l-0.3,0.64l-2.123,0.767L117.621,26.937z M115.245,21.694
		c-0.463-0.837-0.965-1.667-1.492-2.466l0.142-0.693l1.884-1.244l0.693,0.142c0.573,0.868,1.119,1.771,1.624,2.685l-0.196,0.679
		l-1.976,1.092L115.245,21.694z M112.072,16.888c-0.591-0.759-1.216-1.5-1.858-2.202l0.032-0.707l1.667-1.522l0.706,0.032
		c0.701,0.768,1.381,1.574,2.022,2.396l-0.087,0.702l-1.78,1.387L112.072,16.888z M108.19,12.635
		c-0.694-0.65-1.427-1.285-2.178-1.886l-0.078-0.703l1.41-1.763l0.703-0.078c0.815,0.652,1.613,1.342,2.37,2.053l0.023,0.707
		l-1.543,1.647L108.19,12.635z M57.47,12.223l-1.322-1.829l0.112-0.698l1.252-0.905c0.338-0.286,0.712-0.588,1.091-0.884
		l0.703,0.086l1.388,1.78l-0.086,0.701c-0.358,0.28-0.711,0.565-1.058,0.858l-0.08,0.063l-1.301,0.94L57.47,12.223z M103.697,9.04
		c-0.796-0.539-1.619-1.051-2.445-1.522l-0.187-0.682l1.118-1.961l0.682-0.187c0.894,0.509,1.789,1.067,2.66,1.657l0.133,0.695
		l-1.267,1.867L103.697,9.04z M62.253,8.651l-1.244-1.883l0.141-0.693c0.865-0.573,1.768-1.12,2.681-1.625l0.68,0.195l1.094,1.975
		L65.409,7.3c-0.842,0.466-1.671,0.968-2.462,1.493L62.253,8.651z M98.697,6.193c-0.857-0.402-1.749-0.779-2.65-1.119L95.755,4.43
		l0.795-2.112l0.644-0.292c0.966,0.363,1.937,0.773,2.887,1.218l0.241,0.665l-0.96,2.043L98.697,6.193z M67.321,5.756l-0.935-2.055
		l0.248-0.662c0.944-0.43,1.922-0.829,2.905-1.185l0.641,0.3l0.769,2.122l-0.299,0.64c-0.897,0.326-1.794,0.692-2.666,1.088
		L67.321,5.756z M93.314,4.167C92.4,3.903,91.46,3.672,90.519,3.479l-0.39-0.59l0.452-2.211l0.59-0.39
		c1.022,0.209,2.048,0.461,3.047,0.75l0.342,0.619l-0.626,2.168L93.314,4.167z M72.78,3.695l-0.6-2.176l0.35-0.615
		c1.014-0.277,2.042-0.517,3.057-0.711l0.585,0.397l0.424,2.217l-0.397,0.585c-0.935,0.178-1.878,0.398-2.804,0.653L72.78,3.695z
		 M87.677,3.014c-0.934-0.116-1.899-0.197-2.869-0.241l-0.477-0.522l0.102-2.255l0.522-0.477c1.055,0.048,2.105,0.136,3.123,0.262
		l0.435,0.558l-0.278,2.24L87.677,3.014z M78.495,2.519l-0.248-2.244l0.442-0.552c1.037-0.115,2.089-0.19,3.129-0.224l0.516,0.483
		l0.073,2.256l-0.482,0.516c-0.965,0.033-1.934,0.103-2.877,0.207L78.495,2.519z"/>
</g>
<g>
	<path fill="#61C4F2" d="M82.654,63.292c-0.82,0-1.579-0.131-2.253-0.389c-0.679-0.26-1.269-0.63-1.752-1.1
		c-0.48-0.468-0.858-1.03-1.122-1.671c-0.261-0.635-0.393-1.324-0.393-2.05c0-0.747,0.132-1.447,0.393-2.082
		c0.264-0.643,0.641-1.205,1.121-1.671c0.485-0.471,1.073-0.845,1.747-1.113c0.675-0.271,1.436-0.409,2.259-0.409
		c0.824,0,1.586,0.138,2.264,0.41c0.676,0.269,1.263,0.644,1.743,1.113c0.48,0.465,0.857,1.028,1.121,1.671
		c0.261,0.635,0.394,1.336,0.394,2.081c0,0.724-0.133,1.414-0.395,2.05c-0.261,0.641-0.639,1.204-1.123,1.672
		c-0.479,0.468-1.068,0.838-1.749,1.1C84.237,63.161,83.478,63.292,82.654,63.292z M78.465,48.854l-0.5-0.5
		c0-1.451,0.082-2.76,0.242-3.892c0.16-1.149,0.439-2.231,0.832-3.213c0.391-0.978,0.91-1.9,1.543-2.742
		c0.631-0.837,1.415-1.68,2.33-2.506c0.691-0.61,1.352-1.224,1.967-1.826c0.588-0.581,1.1-1.164,1.519-1.733
		c0.408-0.555,0.729-1.147,0.954-1.761c0.22-0.606,0.331-1.264,0.331-1.952c0-1.643-0.372-2.871-1.106-3.651
		c-0.728-0.771-1.838-1.163-3.3-1.163c-0.59,0-1.179,0.093-1.75,0.275c-0.547,0.176-1.041,0.463-1.466,0.852
		c-0.426,0.39-0.777,0.899-1.042,1.512c-0.266,0.616-0.411,1.373-0.431,2.25l-0.5,0.488h-9.119l-0.5-0.504
		c0.021-2.262,0.428-4.252,1.209-5.917c0.785-1.665,1.857-3.062,3.188-4.153c1.326-1.085,2.903-1.904,4.687-2.435
		c1.771-0.526,3.697-0.792,5.726-0.792c2.242,0,4.282,0.283,6.062,0.842c1.798,0.563,3.339,1.396,4.58,2.475
		c1.25,1.084,2.22,2.448,2.886,4.053c0.662,1.594,0.997,3.431,0.997,5.459c0,1.436-0.222,2.754-0.661,3.918
		c-0.433,1.15-1.025,2.248-1.759,3.262c-0.729,1.005-1.572,1.984-2.507,2.909c-0.934,0.923-1.922,1.864-2.937,2.796
		c-0.56,0.52-1.029,1.044-1.394,1.557c-0.365,0.509-0.663,1.051-0.887,1.611c-0.225,0.556-0.384,1.162-0.473,1.802
		c-0.091,0.654-0.146,1.372-0.167,2.192l-0.5,0.487H78.465z"/>
</g>
<g>
	<path fill="#5CC5FF" d="M191.775,149.943l-0.5-0.5v-2.258l0.5-0.5h46.072c2.553,0,4.631-1.939,4.631-4.322V28.087
		c0-2.384-2.078-4.324-4.631-4.324h-11.939l-0.5-0.5v-2.257l0.5-0.5h11.939c4.348,0,7.887,3.401,7.887,7.581v114.276
		c0,4.18-3.539,7.58-7.887,7.58H191.775z"/>
	<path fill="#5CC5FF" d="M195.537,139.43l-0.5-0.5v-2.258l0.5-0.5h36.425v-97.04h-76.009v26.276l-0.5,0.5h-2.258l-0.5-0.5V36.375
		l0.5-0.5h14.869V24.13c0-0.123,0.002-0.245,0.009-0.366h-17.996c-2.56,0-4.64,1.944-4.64,4.333v31.525l-0.5,0.5h-2.258l-0.5-0.5
		V28.096c0-4.185,3.543-7.589,7.896-7.589h18.802c1.401-2.959,4.374-4.853,7.662-4.853h2.038v-4.17c0-3.499,2.847-6.345,6.346-6.345
		h17.26c3.498,0,6.344,2.846,6.344,6.345v4.17h2.041c4.674,0,8.476,3.802,8.476,8.476v11.745h15.677l0.5,0.5V138.93l-0.5,0.5
		H195.537z M215.786,35.875V24.13c0-2.877-2.343-5.219-5.22-5.219H176.54c-2.878,0-5.22,2.341-5.22,5.219v11.745H215.786z
		 M205.271,15.654v-4.169c0-1.703-1.385-3.088-3.088-3.088h-17.26c-1.703,0-3.089,1.385-3.089,3.088v4.169H205.271z"/>
</g>
<g>
	<polygon fill="#FF3A65" points="210.135,60.7 210.111,59.993 211.652,58.346 212.359,58.323 216.426,62.128 222.271,53.711 
		222.969,53.585 224.823,54.873 224.948,55.568 217.281,66.605 216.529,66.685 	"/>
</g>
<g>
	<polygon fill="#FF3A65" points="210.135,88.153 210.111,87.447 211.652,85.799 212.359,85.775 216.426,89.58 222.271,81.162 
		222.969,81.036 224.823,82.324 224.948,83.02 217.281,94.057 216.529,94.137 	"/>
</g>
<g>
	<polygon fill="#FF3A65" points="210.135,115.604 210.111,114.898 211.652,113.25 212.359,113.226 216.426,117.032 222.271,108.614 
		222.969,108.488 224.823,109.775 224.949,110.471 217.282,121.509 216.529,121.589 	"/>
</g>
<g>
	<polygon fill="#5CC5FF" points="166.053,59.353 165.553,58.853 165.553,56.596 166.053,56.096 203.26,56.096 203.76,56.596 
		203.76,58.853 203.26,59.353 	"/>
</g>
<g>
	<polygon fill="#5CC5FF" points="178.984,66.633 178.484,66.133 178.484,63.876 178.984,63.376 203.259,63.376 203.759,63.876 
		203.759,66.133 203.259,66.633 	"/>
</g>
<g>
	<polygon fill="#5CC5FF" points="180.208,86.853 179.708,86.353 179.708,84.096 180.208,83.596 203.26,83.596 203.76,84.096 
		203.76,86.353 203.26,86.853 	"/>
</g>
<g>
	<polygon fill="#5CC5FF" points="190.318,94.133 189.818,93.633 189.818,91.376 190.318,90.876 203.259,90.876 203.759,91.376 
		203.759,93.633 203.259,94.133 	"/>
</g>
<g>
	<polygon fill="#5CC5FF" points="190.318,114.354 189.818,113.854 189.818,111.597 190.318,111.097 203.259,111.097 
		203.759,111.597 203.759,113.854 203.259,114.354 	"/>
</g>
<g>
	<polygon fill="#5CC5FF" points="190.318,120.825 189.818,120.325 189.818,118.068 190.318,117.568 203.259,117.568 
		203.759,118.068 203.759,120.325 203.259,120.825 	"/>
</g>
<g>
	<polygon fill="#445462" points="18.184,153.425 17.709,152.9 18.162,143.969 18.66,143.494 26.298,143.477 20.906,127.951 
		21.578,127.329 39.109,134.991 39.367,135.648 38.464,137.718 37.806,137.977 26.05,132.838 30.643,146.061 30.172,146.725 
		21.284,146.745 20.963,153.066 20.438,153.54 	"/>
</g>
<g>
	<path fill="#445462" d="M223.455,172.879c-3.201,0-5.805-2.604-5.805-5.803c0-3.198,2.604-5.801,5.805-5.801
		c3.199,0,5.802,2.603,5.802,5.801C229.257,170.275,226.654,172.879,223.455,172.879z M223.455,164.531
		c-1.404,0-2.547,1.142-2.547,2.545c0,1.404,1.143,2.547,2.547,2.547c1.402,0,2.545-1.143,2.545-2.547
		C226,165.673,224.857,164.531,223.455,164.531z"/>
</g>
<g>
	<path fill="#5CC5FF" d="M136.318,227.832l-6.133-13.652l0.52-0.701l16.225,2.045l0.314,0.824l-10.092,11.607L136.318,227.832z
		 M137.523,222.564l3.873-4.455l-6.227-0.785L137.523,222.564z"/>
</g>
<path fill="#61C4F2" d="M21.602,238.398c-4.41,0-7.736-3.244-7.736-7.545v-51.531c0-4.34,3.326-7.613,7.736-7.613h45.073
	l0.351,0.145c0.849,0.836,1.835,1.836,2.855,2.871c0.935,0.947,1.897,1.924,2.808,2.83c9.169,9.106,19.37,14.571,32.102,17.196
	l0.399,0.489v24.806l16.427,17.511l-0.365,0.842H21.602L21.602,238.398z"/>
<g>
	<path fill="#445462" d="M13.137,240.555c-5.314,0-9.637-4.324-9.637-9.639v-53.777c0-5.313,4.323-9.639,9.637-9.639h39.206l0.5,0.5
		v2.258l-0.5,0.5H13.137c-3.518,0-6.38,2.862-6.38,6.381v53.777c0,3.52,2.862,6.381,6.38,6.381h105.662l-16.617-16.586l-0.147-0.354
		v-16.33l0.5-0.5h2.257l0.5,0.5v15.188l20.524,20.485l-0.354,0.854L13.137,240.555L13.137,240.555z"/>
</g>
<g>
	<polygon fill="#445462" points="23.604,222.08 23.104,221.58 23.104,219.322 23.604,218.822 83.136,218.822 83.636,219.322 
		83.636,221.58 83.136,222.08 	"/>
</g>
<g>
	<polygon fill="#445462" points="23.604,189.232 23.104,188.732 23.104,186.477 23.604,185.977 52.343,185.977 52.843,186.477 
		52.843,188.732 52.343,189.232 	"/>
</g>
<g>
	<polygon fill="#445462" points="69.152,205.656 68.652,205.156 68.652,202.9 69.152,202.4 81.083,202.4 81.583,202.9 
		81.583,205.156 81.083,205.656 	"/>
</g>
<g>
	<polygon fill="#445462" points="23.604,205.656 23.104,205.156 23.104,202.9 23.604,202.4 58.501,202.4 59.001,202.9 
		59.001,205.156 58.501,205.656 	"/>
</g>
<g>
	<path fill="#5CC5FF" d="M6.052,111.226l-0.5-0.5V98.529c-0.013-0.606-0.182-15.174,12.604-22.01
		c2.667-1.757,6.922-3.332,6.965-3.347l0.506-0.188l0.43,0.039l0.466,0.278c0.07,0.042,7.155,4.19,15.141,4.19
		c7.939,0,14.97-3.917,15.265-4.083l0.435-0.25l0.408-0.041l0.48,0.16c0.048,0.016,4.995,1.663,7.641,3.381l0.147,0.692
		l-1.229,1.893l-0.692,0.147c-1.758-1.142-5-2.352-6.239-2.794c-2.123,1.101-8.694,4.153-16.215,4.153
		c-7.496,0-13.988-3.118-16.102-4.253c-1.271,0.508-3.944,1.635-5.694,2.793l-0.111,0.067C8.745,85.211,8.807,98.366,8.809,98.499
		v9.469h37.376l0.5,0.5v2.258l-0.5,0.5H6.052z"/>
</g>
<g>
	<polygon fill="#5CC5FF" points="24.528,110.097 24.028,109.597 24.028,93.174 24.528,92.674 26.785,92.674 27.285,93.174 
		27.285,109.597 26.785,110.097 	"/>
</g>
<g>
	<path fill="#5CC5FF" d="M60.954,43.272l-0.955-3.443c-1.229-4.425-2.913-7.097-5.007-7.941c-0.3-0.121-0.594-0.18-0.901-0.18
		c-0.97,0-2.049,0.571-3.711,1.51c-1.987,1.123-4.451,2.516-7.66,2.703c-0.319,0.019-0.633,0.029-0.945,0.032
		c-0.339-0.002-0.655-0.014-0.973-0.032c-3.214-0.188-5.679-1.582-7.66-2.703c-1.662-0.939-2.741-1.51-3.712-1.51
		c-0.307,0-0.602,0.059-0.901,0.179c-2.083,0.84-3.824,3.586-5.033,7.941l-0.955,3.443l-0.953,0.033l-1.195-3.369
		c-0.541-1.523-2.17-6.978-0.462-13.233c0.61-2.233,2.192-6.472,5.933-9.773c5.527-4.875,12.623-4.937,15.294-4.96h1.209
		c2.673,0.023,9.77,0.085,15.295,4.96c3.746,3.303,5.325,7.541,5.934,9.773c1.699,6.217,0.054,11.7-0.49,13.233l-1.197,3.369
		L60.954,43.272z M54.092,28.446c0.714,0,1.426,0.142,2.118,0.421c1.903,0.767,3.528,2.363,4.845,4.755
		c0.129-2.088-0.073-4.12-0.604-6.06c-0.516-1.884-1.844-5.453-4.947-8.19c-4.61-4.068-10.604-4.123-13.164-4.146h-1.16
		c-2.557,0.022-8.551,0.075-13.163,4.146c-3.102,2.737-4.431,6.306-4.947,8.19c-0.531,1.942-0.738,3.97-0.619,6.048
		c1.318-2.381,2.948-3.974,4.859-4.744c0.702-0.282,1.395-0.42,2.118-0.42c1.892,0,3.554,0.941,5.314,1.937
		c1.862,1.053,3.787,2.142,6.248,2.286c0.262,0.016,0.518,0.024,0.772,0.026c0.249-0.002,0.505-0.011,0.767-0.026
		c2.458-0.144,4.384-1.233,6.247-2.286C50.459,29.431,52.198,28.446,54.092,28.446z"/>
</g>
<g>
	<path fill="#5CC5FF" d="M41.265,68.605c-4.068,0-8.385-1.847-12.485-5.341c-4.779-4.102-6.738-9.192-7.492-11.95
		c-0.985-0.956-2.258-2.544-2.948-4.818c-0.208-0.638-1.962-6.385,1.47-8.681c0.571-0.365,1.215-0.608,1.872-0.708l0.569,0.418
		l0.342,2.231l-0.418,0.57c-0.212,0.033-0.414,0.106-0.582,0.214c-0.93,0.624-0.678,3.34-0.144,4.978
		c0.58,1.915,1.734,3.141,2.372,3.702l0.264,0.231l0.155,0.253l0.086,0.341c0.606,2.425,2.264,7.043,6.558,10.728
		c3.508,2.99,7.111,4.571,10.418,4.571l0.625-0.004l0.294,0.004c3.307,0,6.905-1.577,10.406-4.561
		c4.305-3.696,5.964-8.313,6.57-10.737l0.084-0.341l0.155-0.254l0.264-0.232c0.636-0.56,1.789-1.782,2.363-3.67
		c0.54-1.656,0.789-4.391-0.163-5.028c-0.094-0.066-0.26-0.147-0.576-0.195l-0.418-0.57l0.342-2.231l0.57-0.418
		c0.755,0.116,1.403,0.362,1.925,0.729c3.4,2.274,1.638,8.041,1.426,8.691c-0.679,2.244-1.951,3.829-2.937,4.786
		c-0.753,2.757-2.709,7.844-7.473,11.932c-4.111,3.505-8.437,5.357-12.513,5.357l-0.629-0.005
		C41.512,68.604,41.388,68.605,41.265,68.605z"/>
</g>
<path fill="#61C4F2" d="M218.621,245.18c-5.643,0-10.945-2.197-14.936-6.188l-22.697-22.699c-2.373-2.372-3.68-5.525-3.68-8.881
	s1.307-6.51,3.68-8.883l20.635-20.635h0.707l31.229,31.227c8.233,8.234,8.233,21.636-0.002,29.871
	C229.566,242.98,224.264,245.18,218.621,245.18z"/>
<path fill="#FF3A65" d="M122.108,182.629c-12.603,0-24.571-0.722-32.503-9.434l-0.122-0.428c0.138-0.742,3.458-18.218,11.485-23.33
	c1.594-1.058,3.196-1.787,4.746-2.492c0.666-0.303,1.317-0.6,1.945-0.912l0.547,0.064c2.261,1.916,4.799,2.849,7.757,2.849
	c2.131,0,4.262-0.48,5.881-0.899l0.125-0.016h0.508l0.116,0.014c0.893,0.213,1.818,0.321,2.748,0.321
	c3.319,0,6.854-1.351,10.505-4.011l0.424-0.078c2.041,0.547,5.875,2.166,8.111,3.617c7.805,5.004,8.686,14.539,9.159,19.66
	l0.092,0.978l-0.13,0.39C145.441,177.633,134,182.629,122.108,182.629z"/>
<g>
	<path fill="#445462" d="M118.68,184.852c-24.122,0-36.334-15.728-36.843-16.396l-0.303-0.399l-0.093-0.396l0.096-0.494
		c0.125-0.643,3.16-15.809,12.637-21.848c2.386-1.578,6.769-3.863,7.624-4.307l0.788-0.404l0.593,0.104l0.583,0.621
		c0.221,0.227,5.629,5.643,14.758,5.643c9.311,0,14.809-5.598,14.864-5.654l0.597-0.625l0.604-0.094l0.762,0.416
		c0.041,0.021,4.867,2.662,7.404,4.311c9.705,6.222,12.107,16.705,12.676,22.4l0.045,0.438l-0.099,0.35l-0.265,0.352
		C154.618,169.518,142.852,184.852,118.68,184.852z M84.898,167.044c2.472,2.845,13.865,14.552,33.781,14.552
		c20.042,0,31.086-11.479,33.43-14.213c-0.719-6.068-3.243-14.266-11.129-19.32c-1.734-1.125-4.707-2.803-6.184-3.625
		c-2.25,1.914-7.848,5.793-16.28,5.793c-8.445,0-13.993-3.892-16.215-5.812c-1.51,0.799-4.565,2.444-6.358,3.629
		C88.709,152.659,85.58,164.178,84.898,167.044z"/>
</g>
<g>
	<polygon fill="#445462" points="98.43,179.141 97.93,178.641 97.93,167.076 98.43,166.576 100.687,166.576 101.187,167.076 
		101.187,178.641 100.687,179.141 	"/>
</g>
<g>
	<polygon fill="#445462" points="137.434,179.051 136.934,178.551 136.934,167.076 137.434,166.576 139.691,166.576 
		140.191,167.076 140.191,178.551 139.691,179.051 	"/>
</g>
<g>
	<path fill="#445462" d="M118.308,138.465c-7.055,0-16.244-5.979-18.151-14.56l-1.387-5.294c-5.487-3.864-6.328-8.167-5.272-10.92
		c0.478-1.245,1.372-2.237,2.49-2.783c-0.689-2.711-2.162-10.153,0.38-16.575l0.169-0.444c0.68-1.806,2.095-5.569,5.752-8.571
		c5.511-4.522,12.585-4.582,15.248-4.604h1.211c2.664,0.021,9.734,0.078,15.252,4.604c3.759,3.085,5.354,7.06,5.969,9.155
		c1.456,4.957,0.452,13.231-0.107,16.326c1.076,0.473,1.888,1.411,2.307,2.683c1.025,3.099-0.417,8.007-5.085,11.097l-0.613,5.276
		C134.512,132.658,124.244,138.465,118.308,138.465z M97.932,107.708c-0.579,0-1.125,0.45-1.392,1.147
		c-0.618,1.609,0.204,4.511,4.552,7.398l0.358,0.239l0.206,0.289l1.666,6.358c1.538,6.917,9.178,12.071,14.985,12.071
		c4.927,0,13.378-5.021,14.958-11.957l0.731-6.391l0.246-0.375l0.489-0.284c3.939-2.285,4.918-5.944,4.338-7.698
		c-0.232-0.707-0.582-0.789-0.824-0.789l-0.105,0.005c-0.192,0.02-1.158,0.118-2.647,0.118c-3.884,0-11.22-0.656-16.734-5.047
		c-2.953-2.353-4.702-4.303-5.979-5.727c-1.584-1.767-2.174-2.424-3.49-2.424c-0.204,0-0.423,0.015-0.664,0.043
		c-2.083,0.245-6.237,6.456-8.809,12.103l-0.354,0.772l-0.527,0.287l-0.839-0.123C98.033,107.71,97.982,107.708,97.932,107.708z
		 M109.285,91.383c2.776,0,4.164,1.547,5.921,3.505c1.201,1.34,2.847,3.175,5.583,5.354c4.73,3.766,11.3,4.328,14.795,4.328
		c0.383,0,0.725-0.007,1.014-0.017c0.616-3.109,1.457-11.032,0.242-15.163c-0.508-1.734-1.82-5.021-4.91-7.554
		c-4.617-3.791-10.854-3.845-13.202-3.866h-1.164c-2.348,0.02-8.587,0.072-13.208,3.865c-2.985,2.449-4.191,5.659-4.771,7.202
		c-0.069,0.187-0.133,0.353-0.19,0.495c-1.655,4.184-1.282,9.062-0.73,12.261c2.552-4.755,6.097-9.938,9.583-10.348
		C108.616,91.404,108.961,91.383,109.285,91.383z"/>
</g>
<g>
	<path fill="#445462" d="M118.619,197.629c-17.97,0-34.862-6.997-47.566-19.701c-12.706-12.705-19.703-29.599-19.703-47.566
		c0-17.969,6.997-34.861,19.703-47.564c12.708-12.706,29.6-19.703,47.566-19.703c17.968,0,34.859,6.997,47.564,19.703
		c26.228,26.228,26.228,68.904,0,95.131C153.48,190.632,136.589,197.629,118.619,197.629z M118.619,66.351
		c-17.099,0-33.173,6.658-45.263,18.749c-12.091,12.092-18.75,28.166-18.75,45.261c0,17.1,6.659,33.174,18.75,45.265
		s28.166,18.749,45.263,18.749c17.097,0,33.171-6.658,45.262-18.749c12.07-12.069,18.719-28.146,18.719-45.262
		c0-17.118-6.647-33.193-18.719-45.264C151.791,73.009,135.717,66.351,118.619,66.351z"/>
</g>
<g>
	<path fill="#445462" d="M165.908,146.907l-0.312-0.634c0.312-0.928,0.596-1.864,0.848-2.787l0.613-0.351l2.18,0.595l0.351,0.613
		c-0.276,1.012-0.581,2.01-0.905,2.971l-0.634,0.312L165.908,146.907z M167.514,141.249l-0.387-0.592
		c0.199-0.951,0.373-1.915,0.516-2.867l0.568-0.42l2.232,0.334l0.42,0.567c-0.152,1.016-0.338,2.041-0.551,3.054l-0.592,0.387
		L167.514,141.249z M168.441,135.438l-0.451-0.543c0.089-0.968,0.148-1.944,0.18-2.908l0.518-0.483l2.256,0.074l0.482,0.517
		c-0.033,1.051-0.099,2.094-0.191,3.098l-0.543,0.453L168.441,135.438z M168.18,129.07c-0.021-0.953-0.076-1.932-0.158-2.908
		l0.457-0.54l2.248-0.188l0.539,0.457c0.088,1.033,0.146,2.076,0.172,3.1l-0.486,0.513l-2.258,0.058L168.18,129.07z
		 M167.691,123.267c-0.14-0.966-0.307-1.932-0.498-2.871l0.391-0.59l2.213-0.45l0.59,0.39c0.204,1.005,0.383,2.034,0.528,3.059
		l-0.424,0.566l-2.232,0.32L167.691,123.267z"/>
</g>
<g>
	<path fill="#445462" d="M72.411,156.044c-0.498-0.896-0.978-1.823-1.426-2.76l0.234-0.667l2.035-0.977l0.667,0.234
		c0.418,0.874,0.868,1.745,1.336,2.586l-0.194,0.682l-1.974,1.096L72.411,156.044z M69.725,150.445
		c-0.391-0.956-0.758-1.936-1.089-2.909l0.312-0.636l2.136-0.729l0.635,0.312c0.313,0.918,0.657,1.836,1.021,2.729l-0.274,0.651
		l-2.089,0.854L69.725,150.445z M67.719,144.57c-0.277-1.002-0.526-2.016-0.74-3.012l0.383-0.594l2.206-0.477l0.594,0.384
		c0.205,0.951,0.439,1.903,0.695,2.83l-0.349,0.614l-2.175,0.602L67.719,144.57z M66.415,138.504
		c-0.16-1.038-0.29-2.074-0.386-3.079l0.45-0.546l2.247-0.215l0.545,0.45c0.092,0.961,0.214,1.935,0.362,2.894l-0.418,0.57
		l-2.23,0.344L66.415,138.504z M65.821,132.329c-0.025-0.685-0.038-1.367-0.038-2.05c0-0.353,0.003-0.702,0.011-1.057l0.511-0.488
		l2.256,0.048l0.489,0.509c-0.006,0.331-0.009,0.66-0.009,0.988c0,0.643,0.012,1.285,0.036,1.927l-0.48,0.519l-2.256,0.086
		L65.821,132.329z M66.406,126.664l-0.459-0.537c0.081-1.029,0.193-2.068,0.334-3.088l0.564-0.427l2.236,0.311l0.426,0.563
		c-0.132,0.956-0.238,1.93-0.314,2.895l-0.538,0.459L66.406,126.664z M67.188,120.566l-0.393-0.587
		c0.199-1.004,0.433-2.023,0.695-3.026l0.61-0.357l2.185,0.57l0.357,0.611c-0.241,0.92-0.461,1.875-0.652,2.838l-0.588,0.393
		L67.188,120.566z M68.683,114.604l-0.321-0.63c0.315-0.972,0.667-1.956,1.046-2.924l0.648-0.283l2.101,0.823l0.283,0.647
		c-0.354,0.905-0.685,1.828-0.981,2.742l-0.63,0.321L68.683,114.604z M70.868,108.858l-0.245-0.664
		c0.433-0.938,0.897-1.872,1.382-2.778l0.677-0.205l1.989,1.064l0.206,0.676c-0.467,0.878-0.903,1.755-1.296,2.608l-0.664,0.245
		L70.868,108.858z M73.713,103.411l-0.164-0.688c0.54-0.877,1.113-1.75,1.702-2.594l0.696-0.124l1.851,1.292l0.124,0.697
		c-0.546,0.781-1.084,1.6-1.597,2.435l-0.688,0.164L73.713,103.411z M77.185,98.341l-0.082-0.703
		c0.638-0.807,1.309-1.607,1.994-2.377l0.706-0.042l1.687,1.5l0.041,0.707c-0.645,0.723-1.274,1.474-1.872,2.231l-0.703,0.083
		L77.185,98.341z"/>
</g>
<g>
	<polygon fill="#445462" points="165.005,199.425 152.553,186.973 152.553,186.266 154.148,184.669 154.855,184.669 
		167.309,197.122 167.309,197.829 165.712,199.425 	"/>
</g>
<g>
	<polygon fill="#445462" points="174.059,165.48 174.059,164.773 175.654,163.178 176.361,163.178 188.814,175.629 188.814,176.336 
		187.219,177.934 186.512,177.934 	"/>
</g>
<g>
	<path fill="#445462" d="M212.691,250.5c-7.065,0-13.707-2.751-18.699-7.746l-34.312-34.314v-0.707l36.688-36.688h0.707
		l34.312,34.312c4.994,4.992,7.745,11.634,7.745,18.699c0,7.063-2.751,13.705-7.745,18.696
		C226.396,247.749,219.756,250.5,212.691,250.5z M196.297,240.451c4.378,4.38,10.2,6.792,16.395,6.792
		c6.192,0,12.016-2.412,16.396-6.792c4.38-4.378,6.792-10.2,6.792-16.395c0-6.193-2.412-12.017-6.792-16.396l-32.364-32.365
		l-32.789,32.789L196.297,240.451z"/>
</g>
<g>
	<path fill="#5CC5FF" d="M25.39,76.056l-0.953-2.046l0.24-0.664c0.25-0.117,6.122-2.95,6.122-9.204l0.5-0.5h2.258l0.5,0.5
		c0,8.32-7.676,12.003-8.002,12.156L25.39,76.056z"/>
</g>
<g>
	<path fill="#5CC5FF" d="M57.017,76.282c-0.309-0.152-7.554-3.811-7.554-12.14l0.5-0.5h2.257l0.5,0.5
		c0,6.233,5.509,9.103,5.744,9.222l0.222,0.667l-1,2.023L57.017,76.282z"/>
</g>
<g>
	<path fill="#445462" d="M101.44,143.9v-2.258l0.5-0.5c5.587,0,7.182-7.113,7.197-7.186l0.592-0.385l2.209,0.463l0.387,0.592
		c-0.708,3.38-3.791,9.771-10.384,9.771L101.44,143.9z"/>
</g>
<g>
	<path fill="#445462" d="M135.361,144.4c-6.594,0-9.676-6.394-10.385-9.772l0.386-0.592l2.208-0.466l0.592,0.386
		c0.062,0.293,1.602,7.187,7.197,7.187l0.5,0.5v2.258L135.361,144.4z"/>
</g>
</svg>
